<svg width="499" height="499" viewBox="0 0 499 499" fill="none" xmlns="http://www.w3.org/2000/svg">
<g clip-path="url(#clip0_128_137)">
<path d="M16.2016 26C14.1016 26 12.0016 26.4 10.1016 27.1C8.20156 27.8 6.40157 29 4.90157 30.5C3.40157 32 2.20157 33.7 1.40157 35.6C0.601566 37.5 0.101562 39.6 0.101562 41.7C0.101562 42.6 0.201567 43.6 0.301567 44.5L68.1016 456.7C68.9016 461.8 71.5016 466.4 75.4016 469.7C79.3016 473 84.2016 474.9 89.4016 474.9H415.102C418.902 475 422.602 473.6 425.602 471.2C428.602 468.8 430.502 465.3 431.102 461.5L499.002 44.7C499.702 40.5 498.702 36.3 496.202 32.8C493.702 29.3 490.002 27.1 485.802 26.4C484.902 26.3 483.902 26.2 483.002 26.2L16.2016 26ZM302.102 323.8H198.102L170.002 176.8H327.302L302.102 323.8Z" fill="white"/>
</g>
<defs>
<clipPath id="clip0_128_137">
<rect width="499" height="499" fill="white"/>
</clipPath>
</defs>
</svg>
