<svg width="640" height="640" viewBox="0 0 640 640" fill="none" xmlns="http://www.w3.org/2000/svg">
<g clip-path="url(#clip0_121_114)">
<path d="M349.901 300.3H283.801V240.9H349.901V300.3ZM349.901 96H283.801V156.7H349.901V96ZM428.101 240.8H362.001V300.2H428.101V240.8ZM271.801 168.7H205.701V228.8H271.801V168.7ZM349.901 168.7H283.801V228.8H349.901V168.7ZM626.701 268.7C612.301 259 579.101 255.5 553.601 260.3C550.301 236.3 536.901 215.4 512.501 196.6L498.501 187.3L489.201 201.3C470.801 229.1 465.801 274.9 485.501 305.1C476.801 309.8 459.701 316.2 437.101 315.8H2.40062C-6.29938 366.6 8.20062 432.6 46.4006 477.9C83.5006 521.8 139.101 544.1 211.801 544.1C369.201 544.1 485.701 471.6 540.201 339.9C561.601 340.3 607.801 340 631.501 294.7C633.001 292.2 638.101 281.5 640.001 277.6L626.701 268.7ZM115.601 240.8H49.6006V300.2H115.701V240.8H115.601ZM193.701 240.8H127.601V300.2H193.701V240.8ZM271.801 240.8H205.701V300.2H271.801V240.8ZM193.701 168.7H127.601V228.8H193.701V168.7Z" fill="white"/>
</g>
<defs>
<clipPath id="clip0_121_114">
<rect width="640" height="640" fill="white"/>
</clipPath>
</defs>
</svg>
