<svg width="90" height="30" viewBox="0 0 90 30" fill="none" xmlns="http://www.w3.org/2000/svg">
<path d="M27.9138 25.0418V5.35112H28.9819V8.44848C29.108 8.31114 29.2245 8.16525 29.3305 8.01186C30.2225 6.16113 32.104 4.99311 34.1581 5.01618C36.5932 4.94355 38.5721 5.84499 39.735 8.01186C40.475 9.35801 40.8822 10.8617 40.9227 12.3973C40.9631 13.9329 40.6356 15.4559 39.9674 16.8391C38.884 19.2674 36.2079 20.4748 33.3429 20.0313C32.4513 19.9555 31.5929 19.6576 30.846 19.1648C30.0992 18.6719 29.4877 17.9999 29.0673 17.2099V25.0409L27.9138 25.0418ZM28.9819 12.3165L29.2211 14.6287C29.6432 17.2603 31.1991 18.8154 33.642 19.1077C34.7892 19.2963 35.9663 19.0812 36.9726 18.4991C37.979 17.917 38.7523 17.0039 39.1608 15.9155C40.111 13.6512 40.0409 11.0879 38.9729 8.87655C38.5369 7.90085 37.7951 7.09357 36.8598 6.57671C35.9244 6.05984 34.8462 5.86148 33.7881 6.01161C32.7949 6.08386 31.8489 6.46363 31.0815 7.09817C30.314 7.73271 29.7632 8.59051 29.5056 9.55242C29.2782 10.4627 29.1033 11.3853 28.9819 12.3157V12.3165ZM62.7306 14.9927C62.5687 16.3791 61.9087 17.6594 60.8734 18.5957C59.8381 19.5319 58.4981 20.0603 57.1024 20.0826C52.6234 20.3081 50.5215 17.3338 50.1874 13.9015C49.9551 12.0376 50.2577 10.1461 51.0598 8.44762C51.6181 7.2825 52.5328 6.32536 53.6715 5.71487C54.8101 5.10437 56.1135 4.87223 57.3929 5.05207C58.6092 5.15545 59.7622 5.63872 60.6887 6.43349C61.6152 7.22825 62.2682 8.29426 62.5555 9.48065C62.783 10.5614 62.9505 11.6539 63.057 12.7532H51.2939C51.076 15.865 52.7482 18.3669 55.1184 18.9701C58.0705 19.6964 60.5937 18.4173 61.5096 15.6104C61.713 14.8901 62.0838 14.7884 62.7383 14.9927H62.7306ZM51.2854 11.7569H61.807C61.7412 8.44164 59.6769 6.03211 56.8769 6.00477C53.7154 5.95351 51.4229 8.26648 51.2854 11.7569ZM64.9052 15.0653H65.9365C65.9744 15.8251 66.2211 16.5597 66.6496 17.1883C67.078 17.8169 67.6715 18.3152 68.3648 18.6283C69.2354 19.0201 70.1831 19.2105 71.1374 19.1853C72.0918 19.1602 73.0281 18.9201 73.8769 18.4831C74.3395 18.2747 74.7271 17.9294 74.9871 17.4938C75.2472 17.0581 75.3673 16.5531 75.3311 16.047C75.3577 15.559 75.2245 15.0755 74.9516 14.67C74.6787 14.2644 74.2809 13.959 73.8188 13.7999C72.6841 13.3778 71.4776 13.1454 70.3215 12.7745C69.1185 12.432 67.9423 12.002 66.8021 11.4877C64.9394 10.5786 64.824 7.03779 66.9328 5.91676C68.0126 5.30747 69.2277 4.97825 70.4674 4.95915C71.7071 4.94004 72.9318 5.23166 74.0298 5.8074C75.3918 6.5593 76.1446 8.07765 75.9207 9.61821H75.0363C75.0363 9.57549 74.956 9.53789 74.956 9.49432C74.8466 6.67465 72.4764 5.79287 69.9319 6.04066C69.1629 6.1261 68.4341 6.35851 67.7505 6.702C67.3396 6.88965 66.9972 7.20038 66.7706 7.59119C66.5441 7.98199 66.4446 8.43356 66.4859 8.88339C66.4868 9.33356 66.6271 9.77241 66.8875 10.1396C67.1479 10.5068 67.5156 10.7844 67.9402 10.9341C69.051 11.3416 70.2301 11.6031 71.3793 11.9226L74.1563 12.6489C74.7874 12.8561 75.3408 13.25 75.7433 13.7785C76.1458 14.307 76.3784 14.9452 76.4103 15.6087C76.6324 17.0997 75.872 18.5651 74.5271 19.2444C72.0988 20.6183 68.0991 20.2552 66.3176 18.5181C65.4059 17.6013 64.8975 16.3563 64.9078 15.0644L64.9052 15.0653ZM89.4961 9.61907H88.5289C88.5289 9.48834 88.4776 9.36273 88.4631 9.26276C88.4476 8.53774 88.1834 7.84008 87.7147 7.28673C87.2459 6.73338 86.6012 6.35799 85.8886 6.22351C84.5444 5.83796 83.1105 5.90704 81.8095 6.42003C81.2951 6.56725 80.8422 6.87702 80.5184 7.30302C80.1947 7.72903 80.0175 8.24838 80.0135 8.78342C79.9951 9.30878 80.1586 9.82438 80.4766 10.243C80.7945 10.6617 81.2472 10.9577 81.7582 11.081L86.1791 12.2157C86.6572 12.3304 87.128 12.4736 87.589 12.6446C88.9988 13.1573 89.9558 14.4663 89.9985 15.9625C90.0196 16.6948 89.8188 17.4164 89.4223 18.0325C89.0258 18.6485 88.4522 19.1303 87.7769 19.4144C86.7509 19.8805 85.6387 20.1271 84.5118 20.1384C83.3849 20.1498 82.268 19.9256 81.2328 19.4802C80.3814 19.1131 79.6629 18.4939 79.1741 17.7061C78.6852 16.9183 78.4495 15.9997 78.4985 15.0738H79.4436C79.799 16.787 80.9756 18.2139 82.5896 18.8889C84.2037 19.5639 86.0467 19.3982 87.5146 18.448C87.9551 18.219 88.3206 17.8685 88.5681 17.4382C88.8155 17.0078 88.9344 16.5156 88.9108 16.0197C88.9327 15.5313 88.7947 15.049 88.5178 14.6461C88.2408 14.2432 87.8401 13.9416 87.3762 13.787C86.2415 13.3649 85.035 13.1402 83.879 12.7617C82.6693 12.4245 81.4858 11.9993 80.3382 11.4894C78.5199 10.5948 78.3746 7.08308 80.4475 5.9629C81.5407 5.32804 82.7795 4.98697 84.0436 4.9729C85.3076 4.95882 86.5537 5.27222 87.6607 5.88259C88.2939 6.26047 88.8035 6.8143 89.1276 7.47665C89.4516 8.13899 89.5761 8.88127 89.4858 9.61308L89.4961 9.61907ZM26.1562 19.7271C25.7755 19.8711 25.3552 19.8707 24.9747 19.726C24.5943 19.5814 24.2799 19.3025 24.091 18.9419L20.3315 13.7426L19.7863 13.0163L15.4236 18.9496C15.2457 19.2946 14.9484 19.5632 14.587 19.705C14.2257 19.8468 13.8251 19.8523 13.46 19.7203L19.0806 12.1798L13.8514 5.3665C14.6272 5.08625 15.4919 5.39043 15.9234 6.09278L19.8197 11.3561L23.739 6.11329C23.9181 5.77414 24.2157 5.51267 24.575 5.37861C24.9344 5.24454 25.3305 5.24722 25.688 5.38615L23.6587 8.0785L20.9099 11.6561C20.8336 11.7242 20.7726 11.8077 20.7308 11.901C20.689 11.9944 20.6674 12.0955 20.6674 12.1978C20.6674 12.3001 20.689 12.4012 20.7308 12.4945C20.7726 12.5879 20.8336 12.6714 20.9099 12.7395L26.1451 19.7271H26.1562ZM50.0208 5.29388V6.31921C49.2854 6.27097 48.548 6.37747 47.8563 6.63184C47.1645 6.88621 46.5338 7.2828 46.0048 7.796C45.4758 8.3092 45.0603 8.92761 44.7851 9.61133C44.5099 10.295 44.3812 11.0289 44.4071 11.7654V19.7639H43.3673V5.35796H44.3926V8.31006C45.6503 6.15686 47.5916 5.35796 50.0276 5.29986L50.0208 5.29388ZM0.00170887 12.0858L0.45969 9.82413C1.71743 5.35198 6.84409 3.491 10.3712 6.2611C12.4364 7.88284 12.9516 10.1804 12.8508 12.7694H1.21587C1.0279 17.3936 4.36449 20.186 8.63244 18.7608C10.0389 18.2481 11.0975 17.0792 11.4461 15.6267C11.6717 14.9004 12.0442 14.7756 12.7261 14.9858C12.6124 15.8711 12.2994 16.7191 11.8107 17.4661C11.322 18.213 10.6704 18.8394 9.9047 19.2982C8.63975 19.99 7.18844 20.2641 5.75831 20.0813C4.32818 19.8985 2.99246 19.2682 1.94215 18.2806C0.903146 17.1125 0.275985 15.6361 0.1538 14.0767C0.1538 13.8204 0.0683554 13.5811 0.00854441 13.3504C0.00284814 12.9192 0 12.4977 0 12.0858H0.00170887ZM1.2304 11.7731H11.752C11.6862 8.42114 9.57062 6.04322 6.74925 6.02101C3.60831 5.97828 1.36113 8.30408 1.22271 11.7586L1.2304 11.7731Z" fill="white"/>
</svg>
