<svg width="512" height="512" viewBox="0 0 512 512" fill="none" xmlns="http://www.w3.org/2000/svg">
<path d="M78 95.8C78 42.9 120.9 0 173.8 0H338.2C391.1 0 434 42.9 434 95.8C434 129.3 416.8 158.8 390.8 175.9C416.8 193 434 222.5 434 256C434 308.9 391.1 351.8 338.2 351.8H336.1C311.3 351.8 288.7 342.4 271.7 326.9V415.2C271.7 468.8 227.7 512 174.3 512C121.5 512 78 469.2 78 416.2C78 382.7 95.2 353.2 121.2 336.1C95.2 319 78 289.5 78 256C78 222.5 95.2 193 121.2 175.9C95.2 158.8 78 129.3 78 95.8ZM240.3 191.6H173.8C138.2 191.6 109.4 220.4 109.4 256C109.4 291.4 138 320.2 173.4 320.4H240.3V191.6ZM271.7 256C271.7 291.6 300.5 320.4 336.1 320.4H338.2C373.8 320.4 402.6 291.6 402.6 256C402.6 220.4 373.8 191.6 338.2 191.6H336.1C300.5 191.6 271.7 220.4 271.7 256ZM173.8 351.8H173.4C138 352 109.4 380.8 109.4 416.2C109.4 451.6 138.6 480.6 174.3 480.6C210.6 480.6 240.3 451.2 240.3 415.1V351.7H173.8V351.8ZM173.8 31.4C138.2 31.4 109.4 60.2 109.4 95.8C109.4 131.4 138.2 160.2 173.8 160.2H240.3V31.4H173.8ZM271.7 160.2H338.2C373.8 160.2 402.6 131.4 402.6 95.8C402.6 60.2 373.8 31.4 338.2 31.4H271.7V160.2Z" fill="white"/>
</svg>
