<svg width="157" height="196" viewBox="0 0 157 196" fill="none" xmlns="http://www.w3.org/2000/svg">
<path d="M49.2266 190.109C57.4022 193.399 66.2718 195.352 75.5848 195.677C88.1887 196.117 100.174 193.511 110.889 188.561C98.0401 183.513 86.4034 176.131 76.472 166.952C70.0343 177.26 60.5126 185.401 49.2266 190.109Z" fill="#616161"/>
<path d="M76.4713 166.955C53.8008 145.988 40.0479 115.641 41.2102 82.3557C41.248 81.2748 41.305 80.1946 41.3717 79.1147C37.3115 78.0646 33.0727 77.4238 28.7105 77.2715C22.4665 77.0534 16.4197 77.8278 10.711 79.4354C4.6592 90.0364 1.00716 102.2 0.552204 115.228C-0.621946 148.852 19.7256 178.231 49.2259 190.112C60.5119 185.404 70.0333 177.272 76.4713 166.955Z" fill="#808080"/>
<path d="M76.4719 166.954C81.7427 158.519 84.9385 148.63 85.3105 137.976C86.2892 109.95 67.4485 85.8413 41.3724 79.1138C41.3057 80.1937 41.2486 81.2739 41.2109 82.3548C40.0485 115.64 53.8014 145.987 76.4719 166.954Z" fill="#616161"/>
<path d="M82.3936 0.335205C67.5423 12.233 55.8149 27.9212 48.7196 45.9936C44.6574 56.3453 42.1047 67.4647 41.3594 79.1206C67.4356 85.8481 86.2763 109.957 85.2976 137.983C84.9255 148.637 81.7204 158.516 76.459 166.961C86.3901 176.149 98.0271 183.522 110.876 188.57C136.666 176.649 154.964 150.996 156.024 120.654C156.71 100.995 149.157 83.4744 138.484 68.6852C127.213 53.0442 82.3936 0.335205 82.3936 0.335205Z" fill="#383838"/>
</svg>
