<svg width="98" height="79" viewBox="0 0 98 79" fill="none" xmlns="http://www.w3.org/2000/svg">
<path d="M62.1985 21.7336L65.3285 21.7936L73.8585 13.2836L74.2785 9.68362C69.4154 5.34898 63.5246 2.33003 57.1659 0.913721C50.8072 -0.50259 44.192 -0.269207 37.9489 1.59169C31.7058 3.45258 26.0424 6.87915 21.4969 11.5457C16.9513 16.2123 13.6747 21.9638 11.9785 28.2536C12.8585 27.6136 14.8585 28.0936 14.8585 28.0936L31.8585 25.2936C31.8585 25.2936 32.7385 23.8536 33.1685 23.9436C36.8079 19.9449 41.8382 17.4887 47.2295 17.0778C52.6208 16.667 57.9652 18.3326 62.1685 21.7336H62.1985Z" fill="#999999"/>
<path d="M85.7783 28.2736C83.8219 21.0834 79.8116 14.6197 74.2383 9.67358L62.2383 21.6736C64.7111 23.6608 66.7063 26.1775 68.0771 29.0384C69.4478 31.8993 70.159 35.0313 70.1583 38.2036V40.3936C71.581 40.3499 72.998 40.5925 74.3252 41.1068C75.6524 41.6211 76.8629 42.3967 77.8847 43.3876C78.9065 44.3786 79.7189 45.5646 80.2736 46.8755C80.8284 48.1863 81.1143 49.5952 81.1143 51.0186C81.1143 52.442 80.8284 53.8509 80.2736 55.1617C79.7189 56.4725 78.9065 57.6586 77.8847 58.6495C76.8629 59.6404 75.6524 60.4161 74.3252 60.9304C72.998 61.4447 71.581 61.6872 70.1583 61.6436H48.8583L46.7383 63.7836V76.5136L48.8583 78.6336H70.1083C76.0023 78.639 81.7433 76.7582 86.4915 73.2663C91.2397 69.7744 94.7459 64.8546 96.4971 59.2268C98.2482 53.5989 98.1525 47.5584 96.2238 41.9889C94.2951 36.4194 90.6348 31.6133 85.7783 28.2736Z" fill="#5B5B5B"/>
<path d="M27.608 78.6335H48.858V61.6335H27.608C26.0931 61.6189 24.5991 61.2778 23.228 60.6335L20.168 61.5735L11.658 70.1235L10.918 73.0035C15.7125 76.6613 21.5775 78.6397 27.608 78.6335Z" fill="#888888"/>
<path d="M27.6073 23.3936C21.8252 23.3941 16.1891 25.21 11.4942 28.585C6.79922 31.96 3.28235 36.7238 1.43963 42.2045C-0.403094 47.6851 -0.478654 53.606 1.2236 59.1319C2.92586 64.6578 6.32002 69.5098 10.9273 73.0036L23.2473 60.6836C21.6673 59.9876 20.2808 58.9169 19.2079 57.5642C18.135 56.2115 17.4081 54.6176 17.0901 52.9207C16.7721 51.2237 16.8727 49.4748 17.383 47.8255C17.8934 46.1761 18.7982 44.676 20.019 43.4552C21.2398 42.2344 22.7399 41.3296 24.3892 40.8193C26.0386 40.3089 27.7875 40.2084 29.4844 40.5264C31.1814 40.8444 32.7753 41.5713 34.1279 42.6442C35.4806 43.7171 36.5513 45.1036 37.2473 46.6836L49.6073 34.3236C47.0331 30.9268 43.7073 28.1723 39.8904 26.276C36.0735 24.3797 31.8693 23.3931 27.6073 23.3936Z" fill="white"/>
</svg>
