<svg width="448" height="448" viewBox="0 0 448 448" fill="none" xmlns="http://www.w3.org/2000/svg">
<path d="M439.6 204.1L244 8.5C238.6 3 231.2 0 223.6 0C216 0 208.6 3 203.2 8.4L162.5 49L214 100.5C241.1 91.4 266.7 117.3 257.4 144.2L307.1 193.9C341.3 182.1 368.3 224.9 342.6 250.6C316.1 277.1 272.4 247.7 286.6 213.3L240.3 167V288.9C265.6 301.4 262.6 330.7 249.4 343.9C243 350.3 234.2 354 225.1 354C216 354 207.3 350.4 200.8 343.9C183.2 326.3 189.7 297 212 287.9V164.9C191.2 156.4 187.4 134.2 193.4 119.9L142.6 69L8.5 203.1C3 208.6 0 215.9 0 223.5C0 231.1 3 238.5 8.5 243.9L204.1 439.6C209.5 445 216.8 448 224.5 448C232.2 448 239.5 445 244.9 439.6L439.6 244.9C445 239.5 448 232.1 448 224.5C448 216.9 445 209.5 439.6 204.1Z" fill="white"/>
</svg>
