<svg width="496" height="496" viewBox="0 0 496 496" fill="none" xmlns="http://www.w3.org/2000/svg">
<path d="M165.9 395.4C165.9 397.4 163.6 399 160.7 399C157.4 399.3 155.1 397.7 155.1 395.4C155.1 393.4 157.4 391.8 160.3 391.8C163.3 391.5 165.9 393.1 165.9 395.4ZM134.8 390.9C134.1 392.9 136.1 395.2 139.1 395.8C141.7 396.8 144.7 395.8 145.3 393.8C145.9 391.8 144 389.5 141 388.6C138.4 387.9 135.5 388.9 134.8 390.9ZM179 389.2C176.1 389.9 174.1 391.8 174.4 394.1C174.7 396.1 177.3 397.4 180.3 396.7C183.2 396 185.2 394.1 184.9 392.1C184.6 390.2 181.9 388.9 179 389.2ZM244.8 6C106.1 6 0 111.3 0 250C0 360.9 69.8 455.8 169.5 489.2C182.3 491.5 186.8 483.6 186.8 477.1C186.8 470.9 186.5 436.7 186.5 415.7C186.5 415.7 116.5 430.7 101.8 385.9C101.8 385.9 90.4 356.8 74 349.3C74 349.3 51.1 333.6 75.6 333.9C75.6 333.9 100.5 335.9 114.2 359.7C136.1 398.3 172.8 387.2 187.1 380.6C189.4 364.6 195.9 353.5 203.1 346.9C147.2 340.7 90.8 332.6 90.8 236.4C90.8 208.9 98.4 195.1 114.4 177.5C111.8 171 103.3 144.2 117 109.6C137.9 103.1 186 136.6 186 136.6C206 131 227.5 128.1 248.8 128.1C270.1 128.1 291.6 131 311.6 136.6C311.6 136.6 359.7 103 380.6 109.6C394.3 144.3 385.8 171 383.2 177.5C399.2 195.2 409 209 409 236.4C409 332.9 350.1 340.6 294.2 346.9C303.4 354.8 311.2 369.8 311.2 393.3C311.2 427 310.9 468.7 310.9 476.9C310.9 483.4 315.5 491.3 328.2 489C428.2 455.8 496 360.9 496 250C496 111.3 383.5 6 244.8 6ZM97.2 350.9C95.9 351.9 96.2 354.2 97.9 356.1C99.5 357.7 101.8 358.4 103.1 357.1C104.4 356.1 104.1 353.8 102.4 351.9C100.8 350.3 98.5 349.6 97.2 350.9ZM86.4 342.8C85.7 344.1 86.7 345.7 88.7 346.7C90.3 347.7 92.3 347.4 93 346C93.7 344.7 92.7 343.1 90.7 342.1C88.7 341.5 87.1 341.8 86.4 342.8ZM118.8 378.4C117.2 379.7 117.8 382.7 120.1 384.6C122.4 386.9 125.3 387.2 126.6 385.6C127.9 384.3 127.3 381.3 125.3 379.4C123.1 377.1 120.1 376.8 118.8 378.4ZM107.4 363.7C105.8 364.7 105.8 367.3 107.4 369.6C109 371.9 111.7 372.9 113 371.9C114.6 370.6 114.6 368 113 365.7C111.6 363.4 109 362.4 107.4 363.7Z" fill="white"/>
</svg>
