<svg width="460" height="460" viewBox="0 0 460 460" fill="none" xmlns="http://www.w3.org/2000/svg">
<path d="M459.996 0H0V459.998H459.996V0Z" fill="white"/>
<path d="M250.33 358.758C250.33 403.525 224.044 423.958 185.744 423.958C151.143 423.958 131.121 406.093 120.852 384.429L156.07 363.174C162.847 375.187 169.008 385.351 183.896 385.351C198.065 385.351 207.103 379.807 207.103 358.143V211.209H250.33V358.758Z" fill="#323330"/>
<path d="M352.596 423.958C312.449 423.958 286.472 404.859 273.842 379.807L309.061 359.475C318.302 374.57 330.417 385.761 351.672 385.761C369.538 385.761 381.036 376.829 381.036 364.406C381.036 349.619 369.332 344.385 349.516 335.656L338.735 331.036C307.521 317.79 286.882 301.053 286.882 265.836C286.882 233.389 311.627 208.746 350.13 208.746C377.648 208.746 397.362 218.295 411.532 243.349L377.853 264.911C370.461 251.665 362.452 246.43 350.028 246.43C337.398 246.43 329.389 254.44 329.389 264.911C329.389 277.849 337.398 283.087 355.983 291.196L366.763 295.817C403.522 311.527 424.16 327.649 424.16 363.791C424.162 402.601 393.563 423.958 352.596 423.958Z" fill="#323330"/>
</svg>
