<svg width="389" height="265" viewBox="0 0 389 265" fill="none" xmlns="http://www.w3.org/2000/svg">
<g clip-path="url(#clip0_121_98)">
<path d="M93.3116 240.773H78.336C77.8094 215.428 76.3495 191.596 73.9634 169.272H73.8315L51.0303 240.773H39.6279L16.9648 169.272H16.8313C15.1497 190.711 14.0918 214.544 13.6506 240.773H-0.00390625C0.878475 208.874 3.08674 178.971 6.62088 151.058H25.1823L46.7879 216.978H46.9205L68.6587 151.058H86.4188C90.3078 183.749 92.6043 213.661 93.3097 240.773" fill="white"/>
<path d="M158.274 174.582C152.175 207.76 144.131 231.87 134.147 246.911C126.367 258.5 117.845 264.294 108.565 264.294C106.091 264.294 103.04 263.547 99.4199 262.063V254.065C101.188 254.325 103.264 254.463 105.65 254.463C109.98 254.463 113.469 253.263 116.123 250.869C119.302 247.951 120.893 244.671 120.893 241.037C120.893 238.555 119.652 233.461 117.182 225.756L100.746 174.582H115.458L127.254 212.855C129.904 221.545 131.009 227.611 130.567 231.069C137.019 213.791 141.526 194.961 144.09 174.582H158.273" fill="white"/>
<path d="M223.874 215.906C223.874 223.514 221.086 229.76 215.528 234.647C209.966 239.513 202.493 241.952 193.136 241.952C184.384 241.952 175.902 239.145 167.686 233.575L171.529 225.869C178.6 229.413 184.998 231.182 190.743 231.182C196.132 231.182 200.35 229.98 203.401 227.604C206.446 225.211 208.27 221.874 208.27 217.641C208.27 212.314 204.565 207.76 197.767 203.941C191.491 200.487 178.949 193.278 178.949 193.278C172.153 188.307 168.746 182.974 168.746 174.187C168.746 166.919 171.287 161.045 176.362 156.576C181.448 152.097 188.01 149.858 196.046 149.858C204.353 149.858 211.906 152.081 218.709 156.51L215.253 164.21C209.432 161.735 203.692 160.493 198.033 160.493C193.441 160.493 189.902 161.598 187.435 163.822C184.954 166.027 183.421 168.864 183.421 172.322C183.421 177.635 187.206 182.244 194.196 186.138C200.551 189.593 213.401 196.942 213.401 196.942C220.39 201.903 223.874 207.193 223.874 215.906Z" fill="white"/>
<path fill-rule="evenodd" clip-rule="evenodd" d="M250.646 222.826C247.022 216.978 245.207 207.593 245.207 194.653C245.207 172.063 252.058 160.76 265.753 160.76C272.914 160.76 278.169 163.463 281.53 168.865C285.149 174.715 286.965 184.018 286.965 196.778C286.965 219.549 280.114 230.939 266.418 230.939C259.26 230.939 254.003 228.239 250.646 222.827M303.931 242.937L287.485 234.805C288.949 233.601 290.34 232.302 291.599 230.798C298.581 222.567 302.076 210.384 302.076 194.255C302.076 164.575 290.455 149.727 267.215 149.727C255.816 149.727 246.932 153.491 240.571 161.029C233.586 169.27 230.098 181.406 230.098 197.444C230.098 213.214 233.188 224.783 239.374 232.131C245.01 238.774 253.534 242.1 264.945 242.1C269.202 242.1 273.108 241.574 276.658 240.523L298.076 253.02L303.915 242.936" fill="white"/>
<path d="M357.616 240.773H315.07V151.058H329.387V229.737H357.616V240.773" fill="white"/>
<path d="M367.826 240.764H370.198V231.636H373.303V229.771H364.602V231.636H367.826V240.764ZM385.878 240.764H388.114V229.771H384.751L382.014 237.264L379.034 229.771H375.793V240.764H377.909V232.398H378.029L381.15 240.764H382.762L385.878 232.398V240.764Z" fill="white"/>
<path fill-rule="evenodd" clip-rule="evenodd" d="M375.588 121.007C366.935 120.79 360.234 121.656 354.614 124.043C352.992 124.693 350.4 124.693 350.179 126.752C351.049 127.618 351.153 129.026 351.916 130.224C353.209 132.392 355.475 135.314 357.533 136.835C359.804 138.571 362.075 140.299 364.456 141.816C368.669 144.429 373.428 145.94 377.53 148.542C379.916 150.058 382.286 152.007 384.672 153.638C385.857 154.504 386.608 155.916 388.128 156.452V156.124C387.366 155.151 387.153 153.742 386.4 152.651C385.321 151.576 384.238 150.594 383.155 149.515C380.018 145.288 376.121 141.606 371.915 138.571C368.452 136.179 360.88 132.927 359.481 128.928C359.481 128.928 359.367 128.814 359.261 128.707C361.64 128.487 364.456 127.618 366.724 126.961C370.395 125.988 373.747 126.208 377.53 125.235C379.263 124.798 380.993 124.253 382.73 123.72V122.737C380.773 120.79 379.373 118.185 377.32 116.344C371.811 111.576 365.75 106.918 359.481 103.01C356.124 100.842 351.8 99.4392 348.231 97.5919C346.94 96.9404 344.78 96.6194 344.02 95.5292C342.073 93.1453 340.988 90.0059 339.585 87.1831C336.453 81.2278 333.42 74.6178 330.722 68.3204C328.777 64.096 327.588 59.8715 325.209 55.9666C314.068 37.5354 301.964 26.3767 283.369 15.4264C279.369 13.1474 274.613 12.1723 269.536 10.9796C266.828 10.8661 264.128 10.6553 261.425 10.5488C259.693 9.7868 257.961 7.7255 256.45 6.75044C250.285 2.85021 234.4 -5.6034 229.856 5.55999C226.936 12.6101 234.18 19.5443 236.668 23.1227C238.504 25.6124 240.886 28.4357 242.177 31.2497C242.935 33.0933 243.152 35.048 243.912 36.9958C245.64 41.7646 247.259 47.0776 249.534 51.5244C250.719 53.8011 252.015 56.189 253.528 58.2387C254.401 59.4384 255.909 59.9734 256.235 61.9305C254.727 64.096 254.609 67.3477 253.745 70.0598C249.855 82.3094 251.366 97.4842 256.882 106.48C258.607 109.189 262.721 115.153 268.235 112.871C273.1 110.924 272.019 104.745 273.423 99.328C273.746 98.018 273.529 97.1586 274.176 96.2926V96.5117C275.689 99.5425 277.207 102.462 278.611 105.507C281.967 110.813 287.8 116.343 292.669 120.025C295.256 121.984 297.312 125.338 300.555 126.534V126.207H300.343C299.691 125.234 298.721 124.797 297.855 124.042C295.91 122.09 293.752 119.704 292.233 117.537C287.694 111.469 283.688 104.745 280.129 97.808C278.394 94.4398 276.883 90.7577 275.477 87.3994C274.83 86.1048 274.83 84.1479 273.746 83.4992C272.12 85.8813 269.748 87.944 268.561 90.8617C266.505 95.5283 266.29 101.272 265.528 107.237C265.098 107.35 265.315 107.237 265.098 107.452C261.643 106.586 260.453 103.009 259.152 99.984C255.909 92.2775 255.364 79.9207 258.18 71.031C258.933 68.7589 262.185 61.6046 260.883 59.4368C260.229 57.3686 258.069 56.1874 256.882 54.5545C255.48 52.4956 253.958 49.8993 252.994 47.618C250.398 41.5499 249.093 34.8264 246.291 28.7583C244.993 25.935 242.718 23.0076 240.886 20.4113C238.828 17.4838 236.559 15.4248 234.936 11.96C234.4 10.7649 233.642 8.81245 234.504 7.51546C234.716 6.64694 235.155 6.32035 236.021 6.10264C237.419 4.9099 241.424 6.42459 242.826 7.0754C246.829 8.69664 250.181 10.2229 253.528 12.4949C255.043 13.5812 256.665 15.6402 258.607 16.1868H260.883C264.34 16.9395 268.235 16.3975 271.48 17.3772C277.207 19.2185 282.395 21.9282 287.047 24.8557C301.204 33.8536 312.881 46.6475 320.769 61.9288C322.069 64.4186 322.615 66.6976 323.802 69.2939C326.073 74.6162 328.886 80.0358 331.152 85.2337C333.42 90.329 335.587 95.5276 338.835 99.7616C340.452 102.034 346.94 103.227 349.86 104.42C352.017 105.392 355.374 106.261 357.321 107.452C360.996 109.724 364.664 112.33 368.129 114.827C369.854 116.128 375.262 118.835 375.587 121.006" fill="white"/>
<path fill-rule="evenodd" clip-rule="evenodd" d="M265.314 26.7972C263.48 26.7972 262.186 27.0196 260.881 27.3415V27.5592H261.091C261.964 29.2893 263.479 30.4913 264.551 32.006C265.422 33.7408 266.18 35.4685 267.044 37.2056C267.15 37.0991 267.254 36.9855 267.254 36.9855C268.778 35.9063 269.534 34.1738 269.534 31.5683C268.88 30.8039 268.778 30.0512 268.233 29.2892C267.586 28.2077 266.18 27.6657 265.314 26.7972Z" fill="white"/>
</g>
<defs>
<clipPath id="clip0_121_98">
<rect width="388.12" height="264.29" fill="white"/>
</clipPath>
</defs>
</svg>
