<svg width="640" height="392" viewBox="0 0 640 392" fill="none" xmlns="http://www.w3.org/2000/svg">
<path d="M316.3 392C314.2 392 312.1 391.4 310.2 390.4L291 379C288.1 377.4 289.5 376.8 290.5 376.5C294.3 375.2 295.1 374.9 299.2 372.5C299.6 372.3 300.2 372.4 300.6 372.6L315.4 381.4C315.9 381.7 316.7 381.7 317.2 381.4L375 348C375.5 347.7 375.9 347.1 375.9 346.4V279.7C375.9 279 375.6 278.4 375 278.1L317.2 244.8C316.7 244.5 316 244.5 315.4 244.8L257.6 278.1C257 278.4 256.7 279.1 256.7 279.7V346.4C256.7 347 257.1 347.6 257.6 347.9L273.4 357C282 361.3 287.3 356.2 287.3 351.2V285.3C287.3 284.4 288 283.6 289 283.6H296.3C297.2 283.6 298 284.3 298 285.3V351.2C298 362.7 291.8 369.2 280.9 369.2C277.6 369.2 274.9 369.2 267.6 365.6L252.4 356.9C248.7 354.7 246.3 350.7 246.3 346.4V279.7C246.3 275.4 248.6 271.3 252.4 269.2L310.2 235.8C313.9 233.7 318.7 233.7 322.3 235.8L380.1 269.2C383.8 271.4 386.2 275.4 386.2 279.7V346.4C386.2 350.7 383.9 354.8 380.1 356.9L322.3 390.3C320.6 391.4 318.5 392 316.3 392ZM363 326.2C363 313.7 354.6 310.4 336.8 308C318.8 305.6 317 304.4 317 300.2C317 296.7 318.5 292.1 331.8 292.1C343.7 292.1 348.1 294.7 349.9 302.7C350.1 303.5 350.7 304 351.5 304H359C359.5 304 359.9 303.8 360.2 303.5C360.5 303.1 360.7 302.7 360.6 302.2C359.4 288.4 350.3 282 331.8 282C315.3 282 305.5 289 305.5 300.6C305.5 313.3 315.3 316.7 331.1 318.3C350 320.2 351.5 322.9 351.5 326.6C351.5 333.1 346.3 335.8 334.1 335.8C318.8 335.8 315.4 332 314.3 324.4C314.2 323.6 313.5 323 312.6 323H305.1C304.2 323 303.4 323.7 303.4 324.7C303.4 334.4 308.7 346 334 346C352.5 346 363 338.8 363 326.2ZM417.5 276.1C417.5 282.2 412.5 287.2 406.4 287.2C400.3 287.2 395.3 282.2 395.3 276.1C395.3 269.8 400.5 265 406.4 265C412.4 264.9 417.5 269.8 417.5 276.1ZM415.7 276.1C415.7 270.9 411.5 266.8 406.3 266.8C401.2 266.8 397 270.9 397 276.1C397 281.3 401.2 285.5 406.3 285.5C411.5 285.4 415.7 281.2 415.7 276.1ZM411.2 282.3H408.6C408.5 281.7 408.1 278.5 408.1 278.4C407.9 277.7 407.7 277.3 406.8 277.3H404.6V282.3H402.2V269.8H406.5C408 269.8 410.9 269.8 410.9 273.1C410.9 275.4 409.4 275.9 408.5 276.2C410.2 276.3 410.3 277.4 410.6 279C410.7 280 410.9 281.7 411.2 282.3ZM408.4 273.5C408.4 271.8 407.2 271.8 406.6 271.8H404.6V275.3H406.5C408.1 275.3 408.4 274.2 408.4 273.5ZM137.3 131C137.3 128.3 135.9 125.9 133.6 124.6L72.3 89.3C71.3 88.7 70.1 88.4 68.9 88.3H68.3C67.1 88.3 66 88.7 64.9 89.3L3.7 124.6C1.4 125.9 0 128.4 0 131L0.1 226C0.1 227.3 0.8 228.5 1.9 229.2C3 229.9 4.4 229.9 5.6 229.2L42 208.3C44.3 206.9 45.7 204.5 45.7 201.9V157.5C45.7 154.9 47.1 152.4 49.4 151.1L64.9 142.2C66.1 141.5 67.3 141.2 68.6 141.2C69.9 141.2 71.2 141.5 72.3 142.2L87.8 151.1C90.1 152.4 91.5 154.9 91.5 157.5V201.9C91.5 204.5 92.9 207 95.2 208.3L131.6 229.2C132.7 229.9 134.2 229.9 135.3 229.2C136.4 228.6 137.1 227.3 137.1 226L137.3 131ZM472.5 27.3V203.7C472.5 206.3 471.1 208.8 468.8 210.1L407.5 245.5C405.2 246.8 402.4 246.8 400.1 245.5L338.8 210.1C336.5 208.8 335.1 206.3 335.1 203.7V132.9C335.1 130.3 336.5 127.8 338.8 126.5L400.1 91.1C402.4 89.8 405.2 89.8 407.5 91.1L422.8 99.9C424.5 100.9 426.7 99.6 426.7 97.7V3.7C426.7 0.900001 429.7 -0.899996 432.2 0.500004L468.7 20.9C471 22.1 472.5 24.6 472.5 27.3ZM426.5 156.2C426.5 155.5 426.1 154.9 425.6 154.6L404.6 142.4C404 142.1 403.3 142.1 402.7 142.4L381.7 154.6C381.1 154.9 380.8 155.5 380.8 156.2V180.5C380.8 181.2 381.2 181.8 381.7 182.1L402.7 194.2C403.3 194.5 404 194.5 404.5 194.2L425.5 182.1C426.1 181.8 426.4 181.2 426.4 180.5V156.2H426.5ZM636.3 155.5C638.6 154.2 640 151.7 640 149.1V132C640 129.4 638.6 126.9 636.3 125.6L575.4 90.2C573.1 88.9 570.3 88.9 568 90.2L506.7 125.6C504.4 126.9 503 129.4 503 132V202.8C503 205.5 504.4 207.9 506.7 209.2L567.6 243.9C569.8 245.2 572.6 245.2 574.9 243.9L611.7 223.4C614.2 222 614.2 218.4 611.7 217L550 181.6C548.8 180.9 548.1 179.7 548.1 178.4V156.2C548.1 154.9 548.8 153.7 550 153L569.2 141.9C570.3 141.2 571.8 141.2 572.9 141.9L592.1 153C593.2 153.7 594 154.9 594 156.2V173.6C594 176.4 597.1 178.2 599.6 176.8L636.3 155.5ZM559 159C558.6 159.3 558.3 159.7 558.3 160.2V173.8C558.3 174.3 558.6 174.8 559 175L570.8 181.8C571.2 182.1 571.8 182.1 572.2 181.8L584 175C584.4 174.7 584.7 174.3 584.7 173.8V160.2C584.7 159.7 584.4 159.2 584 159L572.2 152.2C571.8 151.9 571.2 151.9 570.8 152.2L559 159ZM304.8 202.5V132.1C304.8 129.5 303.2 127 300.9 125.7L239.8 90.5C237.7 89.3 234.8 89.1 232.4 90.5L171.3 125.7C169 127 167.4 129.4 167.4 132.1V202.5C167.4 205.3 169.3 207.7 171.4 208.9L232.6 244.1C235 245.5 237.8 245.4 240 244.1L301 208.9C302.8 207.9 304.1 206.2 304.6 204.2C304.7 203.7 304.8 203.1 304.8 202.5ZM230.5 77.6L229.7 78.1H230.8L230.5 77.6ZM306.7 207.8L306.3 207.1V208L306.7 207.8Z" fill="white"/>
</svg>
