<svg width="21" height="23" viewBox="0 0 21 23" fill="none" xmlns="http://www.w3.org/2000/svg">
<path d="M10.5 13.45C11.6046 13.45 12.5 12.5545 12.5 11.45C12.5 10.3454 11.6046 9.44995 10.5 9.44995C9.39543 9.44995 8.5 10.3454 8.5 11.45C8.5 12.5545 9.39543 13.45 10.5 13.45Z" fill="white"/>
<path d="M10.5 15.9501C16.0228 15.9501 20.5 13.9354 20.5 11.4501C20.5 8.96479 16.0228 6.95007 10.5 6.95007C4.97715 6.95007 0.5 8.96479 0.5 11.4501C0.5 13.9354 4.97715 15.9501 10.5 15.9501Z" stroke="white"/>
<path d="M6.60226 13.7C9.36368 18.483 13.3471 21.3529 15.4994 20.1103C17.6517 18.8677 17.1579 13.983 14.3965 9.20005C11.6351 4.41712 7.65169 1.54715 5.49937 2.78979C3.34705 4.03244 3.84083 8.91712 6.60226 13.7Z" stroke="white"/>
<path d="M6.60226 9.20005C3.84083 13.983 3.34705 18.8677 5.49937 20.1103C7.65169 21.3529 11.6351 18.483 14.3965 13.7C17.1579 8.91712 17.6517 4.03244 15.4994 2.78979C13.3471 1.54715 9.36368 4.41712 6.60226 9.20005Z" stroke="white"/>
</svg>
