<svg width="240" height="72" viewBox="0 0 240 72" fill="none" xmlns="http://www.w3.org/2000/svg">
<path d="M0.0681818 71V1.18182H27.6136C32.8864 1.18182 37.3864 2.125 41.1136 4.01136C44.8636 5.875 47.7159 8.52273 49.6705 11.9545C51.6477 15.3636 52.6364 19.375 52.6364 23.9886C52.6364 28.625 51.6364 32.6136 49.6364 35.9545C47.6364 39.2727 44.7386 41.8182 40.9432 43.5909C37.1705 45.3636 32.6023 46.25 27.2386 46.25H8.79546V34.3864H24.8523C27.6705 34.3864 30.0114 34 31.875 33.2273C33.7386 32.4545 35.125 31.2955 36.0341 29.75C36.9659 28.2045 37.4318 26.2841 37.4318 23.9886C37.4318 21.6705 36.9659 19.7159 36.0341 18.125C35.125 16.5341 33.7273 15.3295 31.8409 14.5114C29.9773 13.6705 27.625 13.25 24.7841 13.25H14.8295V71H0.0681818ZM37.7727 39.2273L55.125 71H38.8295L21.8523 39.2273H37.7727ZM63.0682 71V1.18182H110.114V13.3523H77.8295V29.9886H107.693V42.1591H77.8295V58.8295H110.25V71H63.0682ZM159.724 21.2614C159.452 18.5114 158.281 16.375 156.213 14.8523C154.145 13.3295 151.338 12.5682 147.793 12.5682C145.384 12.5682 143.349 12.9091 141.69 13.5909C140.031 14.25 138.759 15.1705 137.872 16.3523C137.009 17.5341 136.577 18.875 136.577 20.375C136.531 21.625 136.793 22.7159 137.361 23.6477C137.952 24.5795 138.759 25.3864 139.781 26.0682C140.804 26.7273 141.986 27.3068 143.327 27.8068C144.668 28.2841 146.099 28.6932 147.622 29.0341L153.895 30.5341C156.94 31.2159 159.736 32.125 162.281 33.2614C164.827 34.3977 167.031 35.7955 168.895 37.4545C170.759 39.1136 172.202 41.0682 173.224 43.3182C174.27 45.5682 174.804 48.1477 174.827 51.0568C174.804 55.3295 173.713 59.0341 171.554 62.1705C169.418 65.2841 166.327 67.7045 162.281 69.4318C158.259 71.1364 153.406 71.9886 147.724 71.9886C142.088 71.9886 137.179 71.125 132.997 69.3977C128.838 67.6705 125.588 65.1136 123.247 61.7273C120.929 58.3182 119.713 54.1023 119.599 49.0795H133.884C134.043 51.4205 134.713 53.375 135.895 54.9432C137.099 56.4886 138.702 57.6591 140.702 58.4545C142.724 59.2273 145.009 59.6136 147.554 59.6136C150.054 59.6136 152.224 59.25 154.065 58.5227C155.929 57.7955 157.372 56.7841 158.395 55.4886C159.418 54.1932 159.929 52.7045 159.929 51.0227C159.929 49.4545 159.463 48.1364 158.531 47.0682C157.622 46 156.281 45.0909 154.509 44.3409C152.759 43.5909 150.611 42.9091 148.065 42.2955L140.463 40.3864C134.577 38.9545 129.929 36.7159 126.52 33.6705C123.111 30.625 121.418 26.5227 121.44 21.3636C121.418 17.1364 122.543 13.4432 124.815 10.2841C127.111 7.125 130.259 4.65909 134.259 2.88636C138.259 1.11363 142.804 0.22727 147.895 0.22727C153.077 0.22727 157.599 1.11363 161.463 2.88636C165.349 4.65909 168.372 7.125 170.531 10.2841C172.69 13.4432 173.804 17.1023 173.872 21.2614H159.724ZM182.097 13.3523V1.18182H239.438V13.3523H218.062V71H203.472V13.3523H182.097Z" fill="white"/>
</svg>
