<svg width="512" height="384" viewBox="0 0 512 384" fill="none" xmlns="http://www.w3.org/2000/svg">
<path d="M440.6 220.6C422.7 220.7 407.2 225 394.2 231.4C389.4 221.9 384.6 213.6 383.8 207.4C382.9 200.2 381.8 195.8 382.9 187.2C384 178.6 389 166.4 389 165.4C388.9 164.5 387.9 160.1 377.6 160C367.3 159.9 358.4 162 357.4 164.7C356.4 167.4 354.4 173.6 353.1 180C351.3 189.4 332.5 222.7 321.8 240.2C318.3 233.4 315.3 227.4 314.7 222.6C313.8 215.4 312.7 211 313.8 202.4C314.9 193.8 319.9 181.6 319.9 180.6C319.8 179.7 318.8 175.3 308.5 175.2C298.2 175.1 289.3 177.2 288.3 179.9C287.3 182.6 286.2 189 284 195.2C281.9 201.4 256.9 257 250.4 271.5C247.1 278.9 244.2 284.8 242.1 288.8C240 292.8 242 289.1 241.8 289.5C240 292.9 239 294.8 239 294.8V294.9C237.6 297.4 236.1 299.8 235.4 299.8C234.9 299.8 233.9 293.1 235.6 283.9C239.3 264.6 248.3 234.5 248.2 233.4C248.2 232.9 249.9 227.6 242.4 224.9C235.1 222.2 232.5 226.7 231.9 226.7C231.3 226.7 230.8 228.3 230.8 228.3C230.8 228.3 238.9 194.4 215.3 194.4C200.5 194.4 180.1 210.5 170 225.2C163.6 228.7 150 236.1 135.6 244C130.1 247 124.4 250.2 119 253.1L117.9 251.9C89.3004 221.4 36.4004 199.8 38.6004 158.8C39.4004 143.9 44.6004 104.6 140.2 57C218.5 18 281.2 28.7 292.1 52.5C307.6 86.5 258.6 149.7 177.2 158.8C146.2 162.3 129.9 150.3 125.8 145.8C121.5 141.1 120.9 140.9 119.3 141.8C116.7 143.2 118.3 147.4 119.3 149.9C121.7 156.2 131.7 167.4 148.7 173C163.6 177.9 200 180.6 244 163.6C293.3 144.5 331.8 91.5 320.5 47.2C309 2.09999 234.2 -12.7 163.5 12.4C121.4 27.4 75.8004 50.8 43.0004 81.5C4.00043 117.9 -2.19957 149.7 0.40043 162.9C9.50043 210 74.4004 240.7 100.4 263.4C99.1004 264.1 97.9004 264.8 96.8004 265.4C83.8004 271.8 34.3004 297.7 21.9004 325.1C7.90043 356.1 24.1004 378.4 34.9004 381.4C68.3004 390.7 102.5 374 121 346.5C139.4 319 137.2 283.3 128.7 267L128.4 266.4L138.6 260.4C145.2 256.5 151.7 252.9 157.4 249.8C154.2 258.5 151.9 268.8 150.7 283.8C149.3 301.4 156.5 324.2 166 333.2C170.2 337.1 175.2 337.2 178.3 337.2C189.3 337.2 194.3 328.1 199.8 317.2C206.6 303.9 212.6 288.5 212.6 288.5C212.6 288.5 205.1 330.2 225.6 330.2C233.1 330.2 240.6 320.5 244 315.5V315.6C244 315.6 244.2 315.3 244.6 314.6C245.4 313.4 245.8 312.7 245.8 312.7V312.5C248.8 307.3 255.5 295.4 265.5 275.7C278.4 250.3 290.8 218.5 290.8 218.5C290.8 218.5 292 226.3 295.7 239.1C297.9 246.7 302.7 255 306.4 263.1C303.4 267.3 301.6 269.7 301.6 269.7L301.7 269.8C299.3 273 296.6 276.4 293.8 279.8C283.6 292 271.4 305.9 269.8 309.9C267.9 314.6 268.3 318.1 272 320.9C274.7 322.9 279.5 323.3 284.6 322.9C293.8 322.3 300.2 320 303.4 318.6C308.4 316.8 314.1 314.1 319.6 310.1C329.6 302.7 335.7 292.2 335.1 278.2C334.8 270.5 332.3 262.9 329.2 255.7C330.1 254.4 331 253.1 331.9 251.7C347.7 228.6 359.9 203.2 359.9 203.2C359.9 203.2 361.1 211 364.8 223.8C366.7 230.3 370.5 237.4 373.9 244.4C359.1 256.5 349.8 270.5 346.6 279.7C340.7 296.7 345.3 304.4 354 306.2C357.9 307 363.5 305.2 367.7 303.4C372.9 301.7 379.2 298.8 385 294.5C395 287.1 404.6 276.8 404.1 262.9C403.8 256.5 402.1 250.2 399.8 244.2C412.4 239 428.7 236 449.4 238.5C493.9 243.7 502.7 271.5 501 283.1C499.3 294.7 490 301.1 486.9 303.1C483.8 305 482.8 305.7 483.1 307.1C483.5 309.2 484.9 309.1 487.6 308.7C491.3 308.1 511 299.2 511.8 277.8C513 250.3 486.9 220.3 440.6 220.6ZM97.4004 336.3C82.7004 352.4 62.0004 358.5 53.2004 353.3C43.7004 347.8 47.4004 324.1 65.5004 307C76.5004 296.6 90.8004 287 100.2 281.1C102.3 279.8 105.5 277.9 109.3 275.6C109.9 275.2 110.3 275 110.3 275C111 274.6 111.8 274.1 112.6 273.6C119.3 298 112.9 319.4 97.4004 336.3ZM204.9 263.2C199.8 275.7 189 307.8 182.5 306C176.9 304.5 173.5 280.2 181.4 256.2C185.4 244.1 193.9 229.7 198.9 224.1C207 215.1 215.8 212.1 218 215.8C220.6 220.6 208.1 255.4 204.9 263.2ZM293.6 305.6C291.4 306.7 289.4 307.5 288.5 306.9C287.8 306.5 289.4 305 289.4 305C289.4 305 300.5 293.1 304.9 287.6C307.4 284.4 310.4 280.7 313.6 276.5V277.7C313.6 292.1 299.8 301.7 293.6 305.6ZM362 290C360.4 288.8 360.6 285.1 366 273.5C368.1 268.9 372.9 261.2 381.2 253.9C382.2 256.9 382.8 259.8 382.7 262.5C382.6 280.5 369.8 287.2 362 290Z" fill="white"/>
</svg>
