<svg width="306" height="304" viewBox="0 0 306 304" fill="none" xmlns="http://www.w3.org/2000/svg">
<path d="M73.9216 145.77C76.6653 133.453 81.4913 121.694 88.1916 111C94.6338 100.728 102.563 91.4669 111.722 83.5201C104.714 89.6032 98.4322 96.4754 93.0016 104C96.8417 98.6337 101.228 93.6805 106.092 89.2201C111.005 84.7269 116.366 80.7494 122.092 77.3501C120.068 79.35 117.934 81.2363 115.702 83.0001C113.372 85.0001 111.382 87.0001 111.072 88.2401C98.7242 99.3993 88.6201 112.813 81.3016 127.76C73.9507 142.775 69.7641 159.14 69.0016 175.84C67.5665 170.295 67.726 164.458 69.4616 159C70.8716 154.26 72.8516 150.24 73.9216 145.77Z" fill="#D2D2D2"/>
<path d="M156.001 63C152.831 64 149.781 65.08 146.801 66.25C149.761 64.8861 152.841 63.7981 156.001 63Z" fill="#D2D2D2"/>
<path d="M194.75 280.48C198.15 280.11 201.53 279.59 204.75 279.07C201.466 279.838 198.119 280.31 194.75 280.48Z" fill="#D2D2D2"/>
<path d="M79.1719 188.71L80.6619 194.26C82.8199 208.81 87.7671 222.806 95.2319 235.48C90.8297 228.395 87.1033 220.912 84.1019 213.13C81.0988 205.325 79.4322 197.069 79.1719 188.71Z" fill="#D2D2D2"/>
<path d="M81.5 173.16C81.581 158.987 85.3108 145.073 92.33 132.76C85.6506 145.21 81.9438 159.038 81.5 173.16Z" fill="#D2D2D2"/>
<path d="M265.39 219.7C265.11 219.6 265.03 219.29 265.04 218.92C265.157 218.6 265.204 218.259 265.18 217.92C267.818 214.032 270.158 209.951 272.18 205.71C272.064 206.883 271.864 208.046 271.58 209.19C270.628 210.921 269.534 212.57 268.31 214.12C267.088 215.825 266.112 217.693 265.41 219.67" fill="#D2D2D2"/>
<path d="M190.998 280.71L190.638 280.86C189.468 280.94 188.308 281.02 187.158 281.06L186.738 280.96C188.158 280.86 189.568 280.77 190.998 280.71Z" fill="#D2D2D2"/>
<path d="M262.051 224.67C261.569 224.394 261.016 224.265 260.461 224.3C262.111 222.3 263.681 220.16 265.151 217.99C265.098 218.298 265.061 218.608 265.041 218.92C264.511 220.64 262.571 222.66 262.041 224.67" fill="#D2D2D2"/>
<path d="M213.079 255.26C211.539 255.75 210.429 257.17 209.739 257.64C205.439 257.93 201.199 257.95 196.299 257.91C195.559 258.27 193.969 258.4 192.469 259.02C191.549 258.6 190.579 258.26 189.559 257.91C200.639 258.029 211.643 256.065 221.999 252.12C219.136 253.433 216.161 254.484 213.109 255.26" fill="#D2D2D2"/>
<path d="M163.659 79.71C171.829 77.07 181.169 76.26 190.259 76.61C199.349 76.96 208.259 78.29 216.739 79.16C207.519 75.5 195.689 73.44 185.739 72.91C175.789 72.38 167.859 72.77 165.789 70.77C163.719 68.77 170.869 66.77 180.789 66.39C186.078 66.2433 191.371 66.5074 196.619 67.18C201.929 67.82 206.979 68.82 211.069 69.6C208.999 68.67 208.999 68.67 206.899 67.8C209.009 68.67 211.069 69.57 213.109 69.46C210.463 68.2798 207.752 67.2514 204.989 66.38C202.049 65.38 199.289 64.49 198.079 63.63C199.469 63.34 200.859 63.11 202.269 62.88C196.629 60.4 187.959 58.88 179.129 58.63C170.299 58.38 161.369 59.17 154.829 59.27C171.096 57.4113 187.55 57.9842 203.649 60.97C220.938 64.2502 237.406 70.9255 252.099 80.61C267.414 90.72 280.197 104.218 289.459 120.06C298.67 135.849 303.929 153.631 304.789 171.89C306.151 191.282 303.219 210.736 296.203 228.866C289.188 246.996 278.26 263.356 264.199 276.78C259.984 280.291 255.408 283.344 250.549 285.89C244.596 289.091 238.364 291.742 231.929 293.81C211.769 301.89 189.359 304.73 167.319 302.74C143.879 299.74 121.909 289.17 104.319 273.43C86.7288 257.69 73.1488 236.69 65.6188 212.8C64.0688 208.05 63.8988 201.98 64.9188 200.19C65.4188 199.29 66.1688 199.43 67.1788 201.19C68.1888 202.95 69.4888 206.39 71.5688 211.91C78.788 230.068 89.5699 246.596 103.279 260.52C101.959 260.23 99.8088 258.27 97.6588 255.95C95.7345 253.725 93.6915 251.605 91.5388 249.6C95.3421 255.335 99.7178 260.669 104.599 265.52C109.444 270.328 114.768 274.627 120.489 278.35C112.438 273.108 105.022 266.95 98.3888 260C107.027 269.079 116.961 276.83 127.869 283C139.252 289.432 151.645 293.882 164.519 296.16C169.209 297.06 173.469 298.87 178.439 300.08C184.158 301.591 190.185 301.487 195.849 299.78C178.547 299.81 161.425 296.277 145.549 289.4C129.742 282.551 115.393 272.738 103.279 260.49C103.345 260.498 103.412 260.498 103.479 260.49C93.0587 250.143 84.6736 237.931 78.7588 224.49C80.7588 228.6 83.1988 232.61 85.0188 236.22C75.3788 217.02 70.1588 196.32 70.3388 175.39C71.6145 190.259 75.2676 204.828 81.1588 218.54C87.136 232.492 95.608 245.238 106.159 256.15C116.745 267.113 129.376 275.895 143.339 282C156.966 287.935 171.676 290.979 186.539 290.94C178.459 289.53 169.169 288.57 160.259 286.4C151.349 284.23 142.969 280.91 137.489 276.34C161.165 288.568 188.281 292.427 214.429 287.29L208.739 289C217.363 288.317 225.813 286.198 233.739 282.73C241.676 279.264 249.264 275.049 256.399 270.14C257.659 269.31 258.909 268.47 260.149 267.58L256.399 270.14C243.635 278.498 229.372 284.302 214.399 287.23C220.939 285.23 227.819 283.08 235.869 279.89C231.199 280.89 224.799 282.79 218.259 284.04C209.836 286.201 201.184 287.345 192.489 287.45C205.303 286.977 217.866 283.758 229.329 278.01C212.489 283.46 194.069 285.75 176.639 283.01C186.223 283.98 195.895 283.643 205.389 282.01C221.686 280.1 237.32 274.446 251.069 265.49L249.539 266.62C250.599 265.93 251.619 265.18 252.639 264.45C258.038 260.769 263.08 256.591 267.699 251.97C271.674 247.723 275.04 242.944 277.699 237.77L279.309 235.39C278.669 237.15 278.549 238.18 280.739 235.39C285.519 229.091 289.235 222.051 291.739 214.55C294.519 206.83 296.559 198.68 298.739 190.16C299.869 185.67 300.139 179.4 299.579 172.74C299.878 171.534 299.751 170.262 299.219 169.14C299.059 167.71 298.859 166.27 298.639 164.84C298.305 161.337 297.663 157.87 296.719 154.48C297.409 157.84 298.099 161.32 298.639 164.84L299.039 168.78C298.373 167.643 297.966 166.373 297.849 165.06C298.811 177.297 297.691 189.608 294.539 201.47C291.321 213.529 286.178 224.99 279.309 235.41C279.809 233.95 280.629 231.96 280.859 231.08C279.909 233.36 278.859 235.58 277.699 237.79C273.068 244.46 267.778 250.648 261.909 256.26C263.431 254.605 264.757 252.78 265.859 250.82C257.69 258.913 248.349 265.73 238.149 271.04C227.868 276.373 216.824 280.083 205.409 282.04C183.986 284.529 162.309 280.559 143.159 270.64C153.326 277.085 164.743 281.301 176.659 283.01C160.126 281.355 144.224 275.788 130.269 266.77C116.338 257.812 104.864 245.516 96.8888 231C101.329 235.23 107.099 240.86 111.109 242.06C111.669 241.24 105.939 233.17 109.959 237.35C117.549 244.62 124.199 250.4 130.299 254.42C136.399 258.44 141.939 260.5 146.859 259.62C147.859 259.23 144.179 255.29 141.619 251.5C139.059 247.71 137.409 244.28 140.359 245.68C147.646 249.904 155.415 253.235 163.499 255.6C166.36 256.706 169.302 257.588 172.299 258.24C172.669 258.44 173.389 258.24 174.299 258.01C185.199 259.85 195.689 259.14 201.479 258.62C203.639 258.47 205.779 258.18 207.909 257.85C208.965 257.889 210.008 258.095 210.999 258.46C212.229 257.71 213.469 257.03 214.709 256.46C220.294 255.041 225.707 253.012 230.849 250.41C233.91 249.368 236.897 248.118 239.789 246.67C239.509 246.39 238.789 246.27 239.079 245.61C245.043 241.632 250.457 236.884 255.179 231.49C257.294 229.675 259.529 228.004 261.869 226.49C262.789 222.27 265.959 216.71 268.869 210.26C271.779 203.81 274.319 196.58 275.129 190.35H274.999C276.151 184.086 276.624 177.716 276.409 171.35C276.689 170.28 277.009 169.24 277.409 168.25C276.719 166.7 276.499 165.03 276.109 164.25C275.889 159.09 275.639 154.65 275.109 150.16C274.599 149.46 273.109 148.33 272.529 146.74C271.554 143.587 270.313 140.523 268.819 137.58C267.289 134.091 265.556 130.696 263.629 127.41C257.049 116.147 248.227 106.355 237.709 98.64C237.64 98.0885 237.734 97.5291 237.979 97.03C235.879 96.54 233.659 94.64 231.839 94.15C232.229 94.15 232.529 94.06 232.609 93.78C230.52 93.1065 228.524 92.1725 226.669 91C224.986 89.7978 223.207 88.7374 221.349 87.83C220.145 87.5854 218.925 87.425 217.699 87.35C217.139 87.11 216.579 86.91 216.019 86.68C210.719 82.58 204.209 82.08 197.289 81.45C190.283 80.2575 183.165 79.855 176.069 80.25C170.419 80.67 167.949 79.66 163.769 79.7" fill="white"/>
<path d="M272.879 204.17C275.438 198.511 277.405 192.603 278.749 186.54C277.849 193.12 277.119 199.33 272.879 204.17Z" fill="#D2D2D2"/>
<path d="M137.742 241.81C136.44 239.485 134.972 237.256 133.352 235.14C144.017 245.326 157.236 252.444 171.612 255.74V255.86C165.722 254.86 158.892 252.09 152.942 249.04C146.992 245.99 141.772 242.8 137.742 241.81Z" fill="#D2D2D2"/>
<path d="M264.999 218.92C265.019 218.608 265.056 218.298 265.109 217.99C265.128 218.329 265.081 218.669 264.969 218.99" fill="#D2D2D2"/>
<path d="M101.051 231.94L100.121 230.41C102.728 234.158 105.542 237.757 108.551 241.19C105.737 238.375 103.224 235.275 101.051 231.94Z" fill="#D2D2D2"/>
<path d="M86.2901 185.8C85.1366 176.613 85.2342 167.311 86.5801 158.15C88.7651 146.788 93.3394 136.02 100 126.56C89.6386 144.503 84.8651 165.129 86.2901 185.8Z" fill="#D2D2D2"/>
<path d="M119.561 219.89C118.329 217.065 117.293 214.158 116.461 211.19C117.699 213.937 119.098 216.608 120.651 219.19C120.031 218.91 119.851 219.59 119.561 219.85" fill="#D2D2D2"/>
<path d="M127.829 258.79L125.609 257.14C127.689 258.32 129.799 259.43 131.949 260.43C131.099 260.17 129.209 259.33 127.829 258.79Z" fill="#D2D2D2"/>
<path d="M110.39 189.05C110.63 191.237 110.964 193.413 111.39 195.58C110.84 194.36 110.26 193.17 109.57 191.97C109.982 191.044 110.245 190.058 110.35 189.05" fill="#D2D2D2"/>
<path d="M111.539 155.26C112.287 152.443 113.254 149.688 114.429 147.02C113.323 150.344 112.411 153.73 111.699 157.16C111.509 156.3 111.339 155.6 111.539 155.26Z" fill="#D2D2D2"/>
<path d="M138.049 17.0001C147.031 20.9109 155.282 26.3214 162.449 33.0001C169.317 39.4292 175.191 46.8435 179.879 55.0001C176.265 48.7823 171.942 43.0038 166.999 37.7801C170.514 41.4998 173.637 45.5712 176.319 49.9301C179.006 54.3346 181.244 58.998 182.999 63.8501C181.772 62.0139 180.653 60.1073 179.649 58.1401C178.479 56.1401 177.259 54.2701 176.329 53.8501C169.67 42.793 160.957 33.1122 150.659 25.3301C140.318 17.509 128.479 11.8963 115.879 8.84011C120.312 8.56174 124.733 9.54652 128.629 11.6801C132.039 13.4601 134.799 15.5701 138.049 17.0401" fill="white"/>
<path d="M189.001 91.8201C188.711 89.2501 188.341 86.8201 187.891 84.3301C188.496 86.7861 188.868 89.294 189.001 91.8201Z" fill="white"/>
<path d="M17.5807 89.1001C17.3607 91.7401 17.2507 94.3901 17.1707 96.9501C17.0585 94.3263 17.1958 91.6979 17.5807 89.1001Z" fill="white"/>
<path d="M104.568 14.6799L100.128 14.9899C88.7273 14.483 77.3357 16.1807 66.5781 19.9899C72.628 17.6842 78.8825 15.9564 85.2581 14.8299C91.6408 13.6943 98.1696 13.6469 104.568 14.6899" fill="white"/>
<path d="M116.059 18.76C126.846 20.9154 136.894 25.8205 145.229 33C136.737 26.0644 126.752 21.1934 116.059 18.77" fill="white"/>
<path d="M53.4011 151.88C53.5211 151.69 53.7611 151.68 54.0411 151.74C54.2635 151.867 54.5077 151.952 54.7611 151.99C57.3272 154.568 60.0815 156.951 63.0011 159.12C62.1234 158.844 61.2648 158.51 60.4311 158.12C59.2547 157.142 58.1641 156.064 57.1711 154.9C56.0482 153.73 54.7695 152.721 53.3711 151.9" fill="white"/>
<path d="M17.9997 86.1699L17.9297 85.8799C18.0497 84.9799 18.1497 84.0799 18.2997 83.1999L18.4297 82.8899C18.2997 83.9899 18.1597 85.0799 17.9997 86.1699Z" fill="white"/>
<path d="M50.1016 148.6C50.3916 148.284 50.5767 147.886 50.6316 147.46C51.9316 149.01 53.2916 150.46 54.7316 151.96C54.5073 151.87 54.2767 151.796 54.0416 151.74C52.8116 151.08 51.5616 149.3 50.1016 148.6Z" fill="white"/>
<path d="M34.06 106.79C33.7908 105.756 33.3478 104.776 32.75 103.89C33.16 100.58 33.75 97.34 34.53 93.62C34.37 93 34.53 91.77 34.25 90.54C34.7108 89.8959 35.1381 89.2283 35.53 88.54C33.8114 96.9279 33.6791 105.563 35.14 114C34.5697 111.623 34.2083 109.2 34.06 106.76" fill="white"/>
<path d="M175.059 95.16C175.724 102.106 175.19 109.115 173.479 115.88C171.879 122.79 169.539 129.35 167.619 135.67C171.769 129.18 175.089 120.47 176.959 113.02C178.829 105.57 179.719 99.42 181.539 98.14C183.359 96.86 183.869 102.61 182.649 110.22C181.984 114.271 181.001 118.264 179.709 122.16C178.429 126.16 176.929 129.81 175.709 132.81C176.709 131.38 176.709 131.38 177.709 129.9C176.671 131.221 175.928 132.748 175.529 134.38C176.822 132.54 178.007 130.627 179.079 128.65C179.939 126.927 180.985 125.304 182.199 123.81C182.199 124.9 182.199 126 182.139 127.11C184.869 123.18 187.289 116.79 188.809 110.11C190.329 103.43 191.029 96.51 191.919 91.5201C190.926 104.182 188.051 116.626 183.389 128.44C178.343 141.13 170.82 152.688 161.259 162.44C151.288 172.587 139.118 180.306 125.689 185C112.316 189.667 98.015 191.039 83.9989 189C69.0281 187.158 54.6477 182.037 41.8827 174.001C29.1178 165.966 18.2824 155.213 10.1489 142.51C8.09711 138.779 6.44783 134.84 5.22893 130.76C3.67475 125.75 2.58023 120.609 1.95893 115.4C-1.09521 98.5793 -0.146272 81.2759 4.72893 64.89C10.6279 47.4907 21.6459 32.2795 36.3389 21.25C51.4791 9.88445 69.4062 2.81589 88.2289 0.790045C92.0889 0.320045 96.7289 1.08004 97.9389 2.13004C98.5589 2.64004 98.3389 3.19004 96.8189 3.70004C93.9193 4.47086 90.9732 5.05539 87.9989 5.45004C73.1012 8.26868 58.9211 14.0496 46.2989 22.45C46.7089 21.45 48.5189 20.14 50.5989 18.84C52.5796 17.7071 54.4958 16.4652 56.3389 15.12C51.4095 17.172 46.6991 19.7148 42.2789 22.71C37.904 25.6909 33.8432 29.1085 30.1589 32.91C35.3466 27.5398 41.1385 22.7882 47.4189 18.75C39.2205 23.9669 31.8404 30.3698 25.5189 37.75C18.9302 45.4767 13.7055 54.2691 10.0689 63.75C8.68893 67.18 6.67893 70.15 5.01893 73.75C3.02142 77.8845 2.20802 82.4915 2.66893 87.06C5.20303 73.8879 10.4213 61.3783 17.9989 50.31C25.5597 39.2783 35.1708 29.8031 46.3089 22.4C46.2797 22.4435 46.2562 22.4906 46.2389 22.54C55.6629 16.1437 66.2011 11.5682 77.3089 9.05004C73.8689 10.05 70.4689 11.23 67.4489 12.05C83.2099 7.48223 99.8329 6.73833 115.939 9.88004C104.427 8.65278 92.7931 9.27736 81.4789 11.73C69.9673 14.23 59.008 18.8082 49.1389 25.24C39.2652 31.6933 30.7432 40.0082 24.0489 49.72C17.514 59.2226 13.0163 69.9747 10.8389 81.3C13.1189 75.3 15.2189 68.42 18.1989 61.96C21.1789 55.5 24.9289 49.61 29.1989 46.11C16.3807 62.3404 9.4274 82.4284 9.46893 103.11L8.95893 98.51C8.19914 105.19 8.56078 111.95 10.0289 118.51C11.4896 125.068 13.5759 131.471 16.2589 137.63C16.7089 138.72 17.1589 139.8 17.6589 140.87L16.2589 137.63C11.7873 126.67 9.48153 114.947 9.46893 103.11C10.0689 108.39 10.6489 113.94 11.8789 120.54C11.8789 116.84 11.3089 111.68 11.3289 106.54C10.9255 99.8083 11.3385 93.0525 12.5589 86.42C11.0115 96.2497 11.5981 106.297 14.2789 115.88C12.6189 102.24 13.6189 87.88 18.2789 75C16.129 82.1431 14.9485 89.5426 14.7689 97C13.8089 109.689 15.7974 122.428 20.5789 134.22L19.9989 132.88C20.3689 133.78 20.7889 134.67 21.1989 135.57C23.2059 140.225 25.6396 144.684 28.4689 148.89C31.1137 152.538 34.2539 155.799 37.7989 158.58L39.3689 160.15C38.1389 159.4 37.3689 159.15 39.1789 161.25C43.2636 165.835 48.0744 169.717 53.4189 172.74C58.8789 176 64.7789 178.74 70.9489 181.66C75.1083 183.395 79.5097 184.481 83.9989 184.88C84.8736 185.291 85.8653 185.379 86.7989 185.13C87.9089 185.22 89.0389 185.28 90.1589 185.33C92.8747 185.598 95.609 185.622 98.3289 185.4C95.6689 185.4 92.9089 185.4 90.1589 185.33L87.0989 185.06C88.0584 184.713 89.0838 184.586 90.0989 184.69C80.6396 183.615 71.4318 180.941 62.8689 176.78C54.1582 172.549 46.1914 166.932 39.2789 160.15C40.2789 160.76 41.7089 161.68 42.3489 161.98C40.7589 160.92 39.2289 159.77 37.7089 158.58C33.318 154.067 29.3947 149.122 25.9989 143.82C27.0347 145.223 28.2256 146.504 29.5489 147.64C24.5963 140.219 20.7903 132.095 18.2589 123.54C15.7334 114.926 14.5562 105.974 14.7689 97C16.0446 80.3116 22.2818 64.386 32.6789 51.27C26.2619 58.0533 21.3572 66.1209 18.2889 74.94C21.9955 62.588 28.5908 51.2964 37.5289 42C46.4366 32.7202 57.5226 25.8142 69.7789 21.91C65.8989 24.67 60.7789 28.23 59.2489 31.11C59.7889 31.65 66.7789 28.49 63.0089 30.93C56.3389 35.63 50.9589 39.83 47.0089 43.93C43.0589 48.03 40.6489 51.93 40.5989 55.77C40.7389 56.61 44.2889 54.37 47.5989 52.98C50.9089 51.59 53.7189 50.84 52.2189 52.88C47.9198 57.8079 44.2268 63.2332 41.2189 69.04C39.9612 71.0552 38.8549 73.161 37.9089 75.34C37.7308 75.8334 37.6927 76.3664 37.7989 76.88C35.4402 83.5341 33.9284 90.4585 33.2989 97.4901C33.0989 99.1601 32.9989 100.82 32.9489 102.49C32.7508 103.285 32.4374 104.046 32.0189 104.75C32.4089 105.8 32.7389 106.84 33.0189 107.87C33.2617 112.313 33.9928 116.717 35.1989 121C35.536 123.489 36.0439 125.951 36.7189 128.37C36.9689 128.2 37.1689 127.67 37.6189 127.98C39.772 133.119 42.5893 137.953 45.9989 142.36C47.0712 144.238 48.0102 146.19 48.8089 148.2C51.8889 149.52 55.6589 152.77 60.1389 155.9C64.4978 159.129 69.2921 161.725 74.3789 163.61V163.53C78.9679 165.324 83.7347 166.625 88.5989 167.41C89.3618 167.763 90.1031 168.16 90.8189 168.6C92.1089 168.3 93.3989 168.38 94.0389 168.19C98.0389 168.79 101.409 169.26 104.909 169.51C105.817 168.853 106.832 168.359 107.909 168.05C110.456 167.771 112.974 167.28 115.439 166.58C118.32 165.932 121.162 165.117 123.949 164.14C133.497 160.794 142.257 155.525 149.689 148.66C150.122 148.69 150.539 148.843 150.889 149.1C151.569 147.57 153.349 146.17 153.989 144.85C153.929 145.15 153.989 145.39 154.159 145.49C154.978 143.996 155.986 142.615 157.159 141.38C158.318 140.274 159.381 139.074 160.339 137.79C160.717 136.917 161.021 136.014 161.249 135.09C161.519 134.7 161.769 134.3 162.019 133.91C165.919 130.48 167.269 125.6 168.769 120.42C170.723 115.257 172.085 109.89 172.829 104.42C173.339 100.06 174.479 98.33 175.069 95.14" fill="white"/>
<path d="M64.1094 159.89C68.041 162.685 72.2499 165.067 76.6694 167C71.7894 165.34 67.1694 163.87 64.1094 159.92" fill="white"/>
<path d="M55.47 51.4101C57.4332 50.7722 59.3454 49.9866 61.19 49.0601C51.855 55.6726 44.4788 64.6831 39.84 75.1401H39.75C41.7783 70.3835 44.4718 65.9391 47.75 61.9401C50.92 57.8001 54.16 54.3501 55.51 51.4301" fill="white"/>
<path d="M53.9987 151.74C54.2325 151.797 54.4628 151.867 54.6888 151.95C54.4353 151.912 54.1912 151.827 53.9688 151.7" fill="white"/>
<path d="M68.4095 24.94L69.7195 24.46C66.4806 25.886 63.3255 27.4953 60.2695 29.28C62.8243 27.5538 65.5525 26.0992 68.4095 24.94Z" fill="white"/>
<path d="M105.731 20.53C112.894 21.0153 119.958 22.4685 126.731 24.85C135.056 28.1988 142.576 33.2775 148.791 39.75C136.661 29.2034 121.662 22.5118 105.711 20.53" fill="white"/>
<path d="M74.8516 40.81C77.1847 40.2962 79.5502 39.942 81.9316 39.75C79.6477 40.2844 77.3972 40.9522 75.1916 41.75C75.5016 41.32 75.0016 41.08 74.8516 40.82" fill="white"/>
<path d="M43.9989 41.3499L45.5789 39.8999C44.3789 41.3199 43.2189 42.7499 42.1289 44.2399C42.4589 43.6299 43.3789 42.3199 43.9989 41.3499Z" fill="white"/>
<path d="M99.6881 38.4001C97.9881 38.2601 96.2781 38.2001 94.5781 38.2301C95.5781 37.9901 96.5781 37.7201 97.5781 37.3701C98.2205 37.8129 98.9294 38.1505 99.6781 38.3701" fill="white"/>
<path d="M125.251 44.2799C127.289 45.2659 129.246 46.4129 131.101 47.7099C128.735 46.371 126.291 45.1755 123.781 44.1299C124.461 44.1299 125.031 44.1299 125.251 44.2799Z" fill="white"/>
</svg>
