<svg width="211" height="221" viewBox="0 0 211 221" fill="none" xmlns="http://www.w3.org/2000/svg">
<path d="M138.879 139.274C134.833 139.151 130.889 140.554 127.83 143.205C124.771 145.856 122.821 149.561 122.368 153.583C122.348 153.661 122.346 153.742 122.363 153.821C122.38 153.9 122.415 153.974 122.465 154.036C122.515 154.099 122.58 154.15 122.653 154.183C122.726 154.217 122.806 154.233 122.886 154.231H154.936C155.01 154.231 155.083 154.216 155.151 154.186C155.218 154.156 155.279 154.112 155.328 154.057C155.377 154.002 155.413 153.936 155.435 153.866C155.457 153.795 155.464 153.721 155.454 153.648C155.139 149.553 153.222 145.747 150.119 143.056C147.016 140.365 142.977 139.006 138.879 139.274Z" fill="white"/>
<path d="M207.583 31.7914L139.597 108.13C139.403 108.34 139.168 108.507 138.906 108.622C138.644 108.736 138.362 108.795 138.076 108.795C137.79 108.795 137.507 108.736 137.245 108.622C136.983 108.507 136.748 108.34 136.554 108.13L101.849 72.3238C101.555 71.9564 101.395 71.4996 101.395 71.0289C101.395 70.5581 101.555 70.1014 101.849 69.7339L113.31 55.036C113.501 54.7687 113.754 54.5509 114.047 54.4006C114.34 54.2503 114.664 54.172 114.993 54.172C115.322 54.172 115.646 54.2503 115.939 54.4006C116.232 54.5509 116.485 54.7687 116.676 55.036L136.101 76.5325C136.295 76.7639 136.538 76.95 136.812 77.0777C137.086 77.2054 137.385 77.2716 137.687 77.2716C137.99 77.2716 138.288 77.2054 138.562 77.0777C138.836 76.95 139.079 76.7639 139.274 76.5325L193.403 2.33094C193.554 2.11166 193.643 1.85604 193.661 1.59067C193.68 1.32529 193.626 1.05984 193.508 0.821918C193.389 0.583992 193.208 0.382274 192.985 0.237732C192.761 0.0931906 192.503 0.011102 192.238 0L1.61871 0C1.1894 0 0.777675 0.170542 0.474108 0.474108C0.170542 0.777675 0 1.1894 0 1.61871L0 218.525C0 218.955 0.170542 219.367 0.474108 219.67C0.777675 219.974 1.1894 220.144 1.61871 220.144H208.813C209.243 220.144 209.654 219.974 209.958 219.67C210.261 219.367 210.432 218.955 210.432 218.525V32.7626C210.561 32.3848 210.534 31.9714 210.358 31.6132C210.182 31.2549 209.871 30.9814 209.493 30.8526C209.115 30.7238 208.702 30.7503 208.344 30.9264C207.985 31.1025 207.712 31.4136 207.583 31.7914ZM58.662 195.993C45.0602 196.679 31.7272 192.033 21.4964 183.043C21.1732 182.677 20.9949 182.205 20.9949 181.716C20.9949 181.227 21.1732 180.755 21.4964 180.389L29.59 169.058C29.7236 168.826 29.9023 168.623 30.1156 168.461C30.3289 168.299 30.5725 168.181 30.8319 168.115C31.0914 168.048 31.3615 168.035 31.6264 168.074C31.8912 168.114 32.1455 168.206 32.3741 168.346C39.7677 175.2 49.4862 178.995 59.5684 178.964C70.1871 178.964 75.367 174.043 75.367 168.864C75.367 152.806 23.0504 163.813 23.0504 129.626C23.0504 114.54 36 101.979 57.4965 101.979C69.8329 101.54 81.91 105.589 91.4893 113.374C91.8494 113.748 92.0505 114.247 92.0505 114.766C92.0505 115.285 91.8494 115.784 91.4893 116.158L83.5253 127.23C83.3608 127.451 83.1529 127.635 82.9144 127.771C82.6759 127.908 82.4119 127.994 82.1387 128.024C81.8655 128.055 81.589 128.029 81.3263 127.948C81.0637 127.867 80.8204 127.733 80.6116 127.554C73.5482 121.94 64.7706 118.923 55.7483 119.007C47.4605 119.007 42.7986 122.698 42.7986 128.137C42.7986 142.576 94.9857 132.928 94.9857 166.986C94.9857 183.432 83.1368 195.993 58.5972 195.993H58.662ZM172.748 164.461C172.758 164.701 172.717 164.941 172.629 165.165C172.541 165.389 172.408 165.593 172.238 165.763C172.067 165.933 171.864 166.066 171.64 166.154C171.416 166.242 171.176 166.283 170.935 166.274H123.022C122.945 166.282 122.871 166.305 122.803 166.342C122.735 166.379 122.676 166.429 122.627 166.489C122.579 166.549 122.544 166.619 122.522 166.693C122.501 166.767 122.495 166.844 122.504 166.921C123.281 171.398 125.705 175.423 129.3 178.203C132.895 180.983 137.399 182.317 141.928 181.943C147.871 181.817 153.642 179.923 158.504 176.504C158.694 176.345 158.915 176.228 159.153 176.161C159.392 176.094 159.641 176.078 159.886 176.115C160.131 176.151 160.365 176.24 160.574 176.374C160.782 176.508 160.959 176.685 161.094 176.892L166.921 185.374C167.164 185.751 167.259 186.204 167.187 186.647C167.115 187.089 166.882 187.489 166.533 187.77C158.84 193.384 149.506 196.298 139.986 196.058C135.23 196.323 130.471 195.592 126.014 193.91C121.557 192.229 117.501 189.635 114.105 186.294C110.71 182.953 108.05 178.94 106.296 174.511C104.542 170.082 103.733 165.335 103.921 160.576C103.789 155.93 104.6 151.306 106.306 146.983C108.011 142.66 110.575 138.727 113.843 135.423C117.111 132.118 121.015 129.511 125.319 127.758C129.624 126.005 134.238 125.143 138.885 125.223C159.022 125.223 172.684 140.31 172.684 162.389L172.748 164.461Z" fill="white"/>
</svg>
