<svg width="260" height="260" viewBox="0 0 260 260" fill="none" xmlns="http://www.w3.org/2000/svg">
<path d="M190.401 90.2189L133.456 172.553C132.852 173.426 131.979 174.08 130.969 174.416C129.959 174.752 128.867 174.748 127.859 174.411C126.851 174.072 125.982 173.415 125.384 172.541C124.785 171.665 124.49 170.618 124.543 169.561L126.822 124.104L90.03 116.301C89.2437 116.134 88.5112 115.777 87.8971 115.261C87.283 114.745 86.8063 114.086 86.5095 113.343C86.2126 112.599 86.1047 111.794 86.1951 110.998C86.2856 110.203 86.5716 109.441 87.0279 108.782L143.973 26.4471C144.577 25.5736 145.45 24.9198 146.46 24.5847C147.47 24.2495 148.562 24.2512 149.571 24.5899C150.579 24.9283 151.448 25.5851 152.046 26.4606C152.644 27.3359 152.939 28.3821 152.886 29.4404L150.607 74.898L187.399 82.7002C188.185 82.8667 188.918 83.224 189.532 83.7399C190.147 84.2559 190.623 84.9149 190.919 85.6585C191.217 86.4021 191.324 87.2073 191.234 88.0028C191.144 88.7984 190.858 89.5591 190.401 90.2189Z" fill="white"/>
<path d="M130.766 241.631C129.252 241.633 127.752 241.337 126.352 240.757C124.953 240.177 123.682 239.326 122.613 238.255L68.8063 184.452C66.6538 182.288 65.4472 179.359 65.4512 176.307C65.4553 173.255 66.6696 170.327 68.828 168.17C70.9863 166.011 73.9127 164.796 76.9651 164.791C80.0176 164.788 82.9473 165.993 85.1116 168.146L130.766 213.796L230.226 114.341C232.394 112.208 235.317 111.018 238.358 111.03C241.401 111.043 244.314 112.256 246.464 114.407C248.615 116.558 249.83 119.471 249.842 122.513C249.853 125.555 248.664 128.478 246.53 130.646L138.918 238.255C137.849 239.328 136.578 240.177 135.179 240.757C133.78 241.337 132.28 241.633 130.766 241.631Z" fill="white"/>
<path d="M130.72 241.631C132.234 241.633 133.734 241.337 135.134 240.757C136.533 240.177 137.804 239.326 138.873 238.255L192.68 184.452C194.832 182.288 196.039 179.359 196.035 176.307C196.032 173.255 194.817 170.327 192.658 168.17C190.499 166.011 187.573 164.796 184.521 164.791C181.468 164.788 178.539 165.993 176.374 168.146L130.72 213.796L31.2607 114.341C29.0924 112.208 26.1691 111.018 23.1276 111.03C20.0859 111.043 17.1723 112.256 15.0216 114.407C12.8708 116.558 11.657 119.471 11.6446 122.513C11.6322 125.555 12.8223 128.478 14.9555 130.646L122.568 238.255C123.638 239.328 124.908 240.177 126.307 240.757C127.706 241.337 129.206 241.633 130.72 241.631Z" fill="white" fill-opacity="0.5"/>
</svg>
