<svg width="1200" height="1200" viewBox="0 0 1200 1200" fill="none" xmlns="http://www.w3.org/2000/svg">
<circle cx="600" cy="600" r="542.5" fill="white" fill-opacity="0.01" stroke="white" stroke-width="115"/>
<path d="M212 309H546V406H309.081L212 309Z" fill="white"/>
<rect x="545.59" y="309" width="236.15" height="97" transform="rotate(45 545.59 309)" fill="white"/>
<rect x="781.59" y="407" width="152.227" height="97" transform="rotate(45 781.59 407)" fill="white"/>
<rect x="792" y="746.227" width="232" height="97" transform="rotate(-90 792 746.227)" fill="white"/>
<path d="M513 793H887.442L988 890H513V793Z" fill="white"/>
<rect x="473.59" y="713" width="152.227" height="97" transform="rotate(45 473.59 713)" fill="white"/>
<rect x="375.59" y="479" width="236.15" height="97" transform="rotate(45 375.59 479)" fill="white"/>
<path d="M678.59 509.999L746.101 577.51L744.08 712.668L610.001 578.588L678.59 509.999Z" fill="white"/>
<path d="M508 680.589L575.511 748.1L710.669 746.08L576.589 612L508 680.589Z" fill="white"/>
<rect x="307" y="548" width="96" height="97" transform="rotate(-90 307 548)" fill="white"/>
<rect x="405.453" y="646.313" width="328.541" height="97" transform="rotate(-45 405.453 646.313)" fill="white"/>
</svg>
