<svg width="500" height="500" viewBox="0 0 500 500" fill="none" xmlns="http://www.w3.org/2000/svg">
<g opacity="0.3">
<path d="M109.73 121.1C62.5595 143.98 27.5695 202 20.6695 272.18C14.8595 331.32 28.7495 396.68 110.52 415.3C269.63 451.53 418.65 461.86 456.69 364.11C494.73 266.36 494.73 117.69 400.37 95.3C336.98 80.26 201.86 76.42 109.74 121.1H109.73Z" fill="#E6E6E6"/>
</g>
<path d="M123.549 357.2C139.869 377.21 162.019 390.04 162.019 390.04V473.9H329.739V235L160.949 210.87C160.949 210.87 99.3891 241.42 101.529 289.38C101.529 289.38 106.199 335.92 123.549 357.2Z" fill="#24285B"/>
<path d="M375.91 202.62H100.17C96.1 214.38 85.24 252.72 101.53 289.38C101.53 289.38 125.48 231.93 177.6 224.61C231.98 216.97 273.83 242.94 277.5 291.82C281.17 340.7 239.83 374.31 239.83 374.31V423.19C239.83 436.02 264.06 444.58 281.17 447.63C298.28 450.68 347.77 462.91 363.04 453.13C378.32 443.35 378.93 437.24 378.93 420.14V367.59C378.93 367.59 407.65 376.14 410.7 357.81C413.76 339.48 385.04 285.71 381.37 271.05C378.47 259.45 379.77 220.72 375.91 202.62Z" fill="#68E1FD"/>
<path d="M187.751 371.95C223.207 371.95 251.951 343.207 251.951 307.75C251.951 272.294 223.207 243.55 187.751 243.55C152.294 243.55 123.551 272.294 123.551 307.75C123.551 343.207 152.294 371.95 187.751 371.95Z" fill="#68E1FD"/>
<path d="M367.619 263.56C367.619 263.56 302.089 272.73 308.509 276.85C314.929 280.97 365.329 287.47 367.619 285.14C369.909 282.81 367.619 263.56 367.619 263.56Z" fill="#24285B"/>
<path d="M242.47 156.24C242.47 156.24 205.2 174.88 196.64 174.57C188.09 174.26 134.93 162.96 130.96 156.24C126.99 149.52 127.6 132.11 127.6 132.11C127.6 132.11 115.07 121.42 112.94 115.61C110.8 109.81 116.91 78.0301 122.41 67.6501C127.91 57.2601 155.4 40.4601 163.35 38.3201C171.29 36.1801 238.81 26.1001 238.81 26.1001C238.81 26.1001 277 30.6801 290.44 35.2701C303.88 39.8501 331.68 50.8501 338.71 56.9601C345.74 63.0701 361.93 86.5901 361.32 95.1501C360.71 103.7 348.79 132.73 343.91 138.53C339.02 144.33 315.5 155.94 315.5 155.94L242.48 156.25L242.47 156.24Z" fill="#0509DE"/>
<path d="M153.47 115.09V92.5499L177.55 68.6999H196.84C197.63 71.2199 199.96 73.0599 202.74 73.0599C206.17 73.0599 208.96 70.2799 208.96 66.8399C208.96 63.3999 206.18 60.6299 202.74 60.6299C199.96 60.6299 197.63 62.4699 196.84 64.9899H176.79C176.3 64.9899 175.83 65.1799 175.49 65.5299L150.32 90.4599C149.97 90.8099 149.77 91.2799 149.77 91.7799V115.09C147.25 115.88 145.41 118.21 145.41 120.99C145.41 124.42 148.19 127.21 151.63 127.21C155.07 127.21 157.85 124.43 157.85 120.99C157.85 118.21 156.01 115.88 153.49 115.09H153.47Z" fill="white"/>
<path d="M332.899 71.2401C330.119 71.2401 327.789 73.0801 326.999 75.6001H269.119L252.259 50.7501C251.909 50.2401 251.339 49.9401 250.729 49.9401H208.649C207.859 47.4201 205.529 45.5801 202.749 45.5801C199.319 45.5801 196.529 48.3601 196.529 51.7901C196.529 55.2201 199.309 58.0101 202.749 58.0101C205.529 58.0101 207.859 56.1701 208.649 53.6501H249.739L266.599 78.5001C266.949 79.0101 267.519 79.3101 268.129 79.3101H326.989C327.779 81.8301 330.109 83.6701 332.889 83.6701C336.319 83.6701 339.099 80.8901 339.099 77.4501C339.099 74.0101 336.319 71.2301 332.889 71.2301L332.899 71.2401Z" fill="white"/>
<path d="M328.009 94.1201C325.229 94.1201 322.899 95.9601 322.109 98.4801H238.769V75.6801C241.289 74.8901 243.129 72.5601 243.129 69.7801C243.129 66.3501 240.349 63.5601 236.909 63.5601C233.469 63.5601 230.689 66.3401 230.689 69.7801C230.689 72.5601 232.529 74.8901 235.049 75.6801V100.33C235.049 101.35 235.879 102.18 236.899 102.18H322.089C322.879 104.7 325.209 106.54 327.989 106.54C331.419 106.54 334.209 103.76 334.209 100.32C334.209 96.8801 331.429 94.1001 327.989 94.1001L328.009 94.1201Z" fill="white"/>
<path d="M307.24 120.99C304.46 120.99 302.13 122.83 301.34 125.35H215.64L205.2 110.34C206.02 109.29 206.52 107.98 206.52 106.55C206.52 103.12 203.74 100.33 200.3 100.33C196.86 100.33 194.08 103.11 194.08 106.55C194.08 109.99 196.86 112.77 200.3 112.77C200.95 112.77 201.56 112.64 202.15 112.46L213.14 128.27C213.49 128.77 214.05 129.07 214.66 129.07H301.32C302.11 131.59 304.44 133.43 307.22 133.43C310.65 133.43 313.44 130.65 313.44 127.22C313.44 123.79 310.66 121 307.22 121L307.24 120.99Z" fill="white"/>
<path d="M182.609 132.93V90.4202H217.029C217.999 92.6002 220.169 94.1202 222.699 94.1202C226.129 94.1202 228.919 91.3402 228.919 87.9002C228.919 84.4602 226.139 81.6802 222.699 81.6802C219.669 81.6802 217.159 83.8502 216.599 86.7102H180.749C179.729 86.7102 178.899 87.5402 178.899 88.5602V132.92C176.379 133.71 174.539 136.04 174.539 138.82C174.539 142.25 177.319 145.04 180.759 145.04C184.199 145.04 186.979 142.26 186.979 138.82C186.979 136.04 185.139 133.71 182.619 132.92L182.609 132.93Z" fill="white"/>
</svg>
