<svg width="500" height="500" viewBox="0 0 500 500" fill="none" xmlns="http://www.w3.org/2000/svg">
<path opacity="0.3" d="M28.8594 206.57C28.8594 206.57 -54.6706 438.63 165.259 441.88C385.179 445.13 485.709 409.49 486.699 291.42C487.699 173.35 408.489 63.17 270.429 61.94C132.369 60.72 57.7194 105.12 28.8594 206.57Z" fill="#E6E6E6"/>
<path d="M342.84 475.5V388.09L430.25 380.28L445.86 475.5H342.84Z" fill="#E6E6E6"/>
<path d="M326.6 343.52L348.3 374.04V387.6L424.76 380.77L420.88 343.51C420.88 343.51 430.25 299.11 418.54 270.23C412.22 254.63 411.28 239.11 411.76 228.14C412.33 214.92 393.35 211.89 389.94 224.68C388.5 230.1 387.5 241.1 387.61 252.18C387.66 256.85 386.66 261.47 384.74 265.73C380.08 276.05 372.28 296.3 376.96 307.63L367.96 351.91L326.61 343.5L326.6 343.52Z" fill="#F4A28C"/>
<path opacity="0.09" d="M367.95 351.93L375.68 385.16L348.3 387.6V374.04L326.6 343.52L367.95 351.93Z" fill="#000001"/>
<path d="M81.6494 119.37C81.6494 119.37 63.9594 123.41 61.4694 101.68C58.9894 79.9499 61.4694 71.8799 61.4694 71.8799H103.059C103.059 71.8799 124.169 124.03 81.6394 119.37H81.6494Z" fill="#000045"/>
<path opacity="0.08" d="M81.6494 119.37C81.6494 119.37 63.9594 123.41 61.4694 101.68C58.9894 79.9499 61.4694 71.8799 61.4694 71.8799H103.059C103.059 71.8799 124.169 124.03 81.6394 119.37H81.6494Z" fill="#000001"/>
<path d="M112.838 46.1498C112.838 46.1498 98.4084 45.7998 95.1484 66.2898C91.8884 86.7798 99.8084 115.18 81.6484 119.37H132.378C132.378 119.37 163.598 47.4298 112.848 46.1498H112.838Z" fill="#24285B"/>
<path d="M144.51 46.1499H112.85C131.47 54.8799 132.38 73.7399 132.38 73.7399V344.46C132.38 362.48 146.99 377.1 165.02 377.1H356.93C374.95 377.1 389.57 362.49 389.57 344.46V82.1299C389.57 62.2599 373.46 46.1499 353.59 46.1499H144.52H144.51Z" fill="#000045"/>
<path opacity="0.35" d="M212.93 101.01H335.44C341.67 101.01 346.73 106.07 346.73 112.3V252.89C346.73 259.12 341.67 264.18 335.44 264.18H212.93V101.01Z" fill="white"/>
<path d="M346.719 296.43H182.299V338.37H346.719V296.43Z" fill="#24285B"/>
<path d="M434.249 24.5H292.199V124.27H434.249V24.5Z" fill="#24285B"/>
<path d="M345.809 82.7798H325.459V96.2698H345.809V82.7798Z" fill="#68E1FD"/>
<path d="M374.819 68.8501H354.469V96.2801H374.819V68.8501Z" fill="#68E1FD"/>
<path d="M403.2 50.8599H382.85V96.2699H403.2V50.8599Z" fill="#68E1FD"/>
<path d="M411.09 95.5601H319.43V101.41H411.09V95.5601Z" fill="white"/>
<path opacity="0.08" d="M266.86 166.34C266.86 166.34 298.69 219.99 256.75 261.26C214.81 302.52 162.76 286.29 162.76 286.29L136.52 353.14L117.4 329.58L138.58 272.76L153.25 241.99L212.92 216.52L266.86 166.34Z" fill="#000001"/>
<path d="M156.216 250.155L134.891 237.653L111.121 278.199L132.447 290.701L156.216 250.155Z" fill="#24285B"/>
<path opacity="0.29" d="M156.216 250.155L134.891 237.653L111.121 278.199L132.447 290.701L156.216 250.155Z" fill="white"/>
<path d="M182.3 267.13C229.73 267.13 268.18 228.68 268.18 181.25C268.18 133.82 229.73 95.3701 182.3 95.3701C134.87 95.3701 96.4199 133.82 96.4199 181.25C96.4199 228.68 134.87 267.13 182.3 267.13Z" fill="#0509DE"/>
<path d="M182.3 241.98C215.841 241.98 243.03 214.79 243.03 181.25C243.03 147.71 215.841 120.52 182.3 120.52C148.76 120.52 121.57 147.71 121.57 181.25C121.57 214.79 148.76 241.98 182.3 241.98Z" fill="white"/>
<path d="M139.591 285.03L112.365 269.069C109.282 267.262 105.318 268.296 103.511 271.378L59.9827 345.63C58.1756 348.713 59.2096 352.677 62.2922 354.484L89.5187 370.445C92.6014 372.252 96.5653 371.218 98.3724 368.135L141.901 293.884C143.708 290.801 142.674 286.837 139.591 285.03Z" fill="#24285B"/>
<path d="M51.5001 338.44C53.1701 319.68 62.5801 302.23 78.0201 291.45C87.1001 285.11 98.7201 280.65 112.84 282.22C151.94 286.57 143.83 345.47 124.84 378.95C105.86 412.43 77.6101 416.8 60.3601 399.24C49.2401 387.91 49.7401 358.14 51.5001 338.43V338.44Z" fill="#F4A28C"/>
<path d="M42.9995 372.19L26.7695 475.5H121.57L124.85 387.07L42.9995 372.19Z" fill="#E6E6E6"/>
<path d="M179.459 207.59C177.959 207.59 176.529 206.91 175.579 205.72L158.879 184.83C157.169 182.69 157.509 179.56 159.659 177.85C161.799 176.14 164.929 176.49 166.639 178.63L178.939 194.02L197.689 163.73C199.129 161.4 202.199 160.68 204.529 162.12C206.859 163.57 207.579 166.63 206.139 168.96L183.679 205.24C182.829 206.61 181.369 207.49 179.749 207.58C179.649 207.58 179.549 207.58 179.449 207.58L179.459 207.59Z" fill="#24285B"/>
</svg>
